<?xml version="1.0" encoding="UTF-8" standalone="no"?>
<!-- Created with Inkscape (http://www.inkscape.org/) -->

<svg
   xmlns:dc="http://purl.org/dc/elements/1.1/"
   xmlns:cc="http://creativecommons.org/ns#"
   xmlns:rdf="http://www.w3.org/1999/02/22-rdf-syntax-ns#"
   xmlns:svg="http://www.w3.org/2000/svg"
   xmlns="http://www.w3.org/2000/svg"
   xmlns:sodipodi="http://sodipodi.sourceforge.net/DTD/sodipodi-0.dtd"
   xmlns:inkscape="http://www.inkscape.org/namespaces/inkscape"
   width="512"
   height="512"
   id="svg2"
   inkscape:label="Pozadí"
   version="1.1"
   inkscape:version="0.48.4 r9939"
   inkscape:export-filename="/home/tassadar/android/android-repo-om/system/extras/multirom/install_zip/prebuilt-installer/multirom/res/miri_90x90.png"
   inkscape:export-xdpi="15.82"
   inkscape:export-ydpi="15.82"
   sodipodi:docname="icon_simple.svg">
  <defs
     id="defs5226" />
  <sodipodi:namedview
     id="base"
     pagecolor="#aeaeae"
     bordercolor="#666666"
     borderopacity="1.0"
     inkscape:pageopacity="0"
     inkscape:pageshadow="2"
     inkscape:zoom="0.98994949"
     inkscape:cx="557.43339"
     inkscape:cy="294.92473"
     inkscape:document-units="px"
     inkscape:current-layer="layer1"
     showgrid="false"
     inkscape:window-width="1920"
     inkscape:window-height="1032"
     inkscape:window-x="-4"
     inkscape:window-y="-3"
     inkscape:window-maximized="1" />
  <metadata
     id="metadata5229">
    <rdf:RDF>
      <cc:Work
         rdf:about="">
        <dc:format>image/svg+xml</dc:format>
        <dc:type
           rdf:resource="http://purl.org/dc/dcmitype/StillImage" />
        <dc:title></dc:title>
      </cc:Work>
    </rdf:RDF>
  </metadata>
  <g
     inkscape:label="Vrstva 1"
     inkscape:groupmode="layer"
     id="layer1"
     transform="translate(0,-540.36218)">
    <path
       style="font-size:medium;font-style:normal;font-variant:normal;font-weight:normal;font-stretch:normal;text-indent:0;text-align:start;text-decoration:none;line-height:normal;letter-spacing:normal;word-spacing:normal;text-transform:none;direction:ltr;block-progression:tb;writing-mode:lr-tb;text-anchor:start;baseline-shift:baseline;color:#000000;fill:#803300;fill-opacity:1;stroke:none;stroke-width:35;marker:none;visibility:visible;display:inline;overflow:visible;enable-background:accumulate;font-family:Sans;-inkscape-font-specification:Sans"
       d="m 926.94652,604.28513 c -10.2599,-0.046 -6.0419,13.49034 4.6699,47.72106 12.9598,41.41441 16.4523,52.53601 31.5812,42.93191 16.9953,21.115 18.6201,22.5084 15.2195,-1.244 7.1143,7.9079 8.6089,15.6529 10.1408,19.8383 1.8741,5.1202 1.5775,8.9771 -0.6817,15.4752 -4.5185,12.996 -19.4965,32.4279 -26.6727,60.5888 -1.9866,7.7958 -2.4696,15.0667 -2.0282,21.7982 -12.9512,-17.1397 -28.974,-32.1439 -45.9145,-41.9093 -12.4601,-7.1828 -25.7567,-8.9323 -38.4495,-8.283 -3.2182,0.1646 -5.70271,0.5135 -7.78881,0.9885 13.00831,-12.6264 7.66041,-11.397 -20.8098,-4.7039 -3.6028,-8.9056 -6.86,-13.3452 -11.6405,-13.4982 -4.7805,-0.1532 -11.0864,3.9706 -20.7586,12.1687 -0.1141,-0.1059 -0.2076,-0.1987 -0.3239,-0.3066 -5.2911,-4.9157 -8.2764,-7.6565 -11.3337,-6.8515 -3.9309,1.035 -7.9733,7.9549 -17.2649,23.8094 -5.506,9.3953 -9.1793,15.6428 -10.5668,19.1908 -21.2269,21.0178 -12.0148,22.0257 35.5352,27.1328 43.1466,4.6341 54.7375,5.876 51.9649,-11.828 25.56151,-7.0041 28.04231,-8.0577 6.5105,-14.0437 12.19941,-0.9825 22.75131,-2.2556 30.06421,1.96 15.294,8.8163 33.0641,26.5936 44.6704,45.0964 9.2168,14.6933 13.7544,29.5721 13.805,39.4039 -32.9242,27.1373 -28.3074,50.819 -8.5557,70.3716 3.2831,8.8265 9.2414,16.2726 14.4015,21.611 9.477,9.804 11.0403,14.3503 13.2256,18.1509 3.1495,5.47743 3.7773,7.48683 0.6988,11.5043 -2.9573,3.8591 -11.416,11.3367 -26.8431,11.6235 -0.7435,-0.8902 -1.6385,-1.3555 -2.8804,-1.3806 -3.1545,-0.062 -8.5429,2.6495 -19.3099,8.0786 -21.5342,10.858 -21.5203,10.8573 3.7154,11.3677 10.655,0.2156 16.8003,0.3404 20.0769,-0.4431 2.4931,0.4151 7.277,0.5185 14.5039,0.6649 14.2391,0.2879 19.0682,0.3737 19.7871,-2.4033 9.5451,-7.7567 18.89668,-4.7536 28.17248,-9.9532 6.5067,-3.6472 12.6913,-4.4492 8.3001,-16.2591 -1.5002,-4.03487 -2.6534,-7.95597 -3.7325,-11.8452 11.218,4.57103 21.8624,8.46433 30.6438,11.6065 7.2668,2.6001 13.8011,3.2399 19.5827,3.0505 -2.9156,1.575 -6.0281,3.2619 -9.5443,5.1815 -39.1478,21.3708 -39.1556,21.3779 4.2438,21.6447 34.1379,0.2098 41.4182,0.2449 40.9037,-10.2769 2.3065,-0.5762 5.2936,-2.2333 7.8229,-2.1306 2.3394,0.095 16.4559,-0.2973 28.9735,-4.4823 33.6351,5.2056 57.076,6.3971 73.8314,0.9203 8.4865,-2.7739 15.9896,-7.5774 20.5882,-14.8445 4.5986,-7.26737 5.3753,-15.9661 4.0392,-23.2982 -2.672,-14.6642 -11.572,-26.7817 -21.9857,-38.6542 -10.4137,-11.8723 -22.828,-22.9674 -34.4615,-31.8709 -26.4605,-20.2506 -25.4386,-35.859 -20.9802,-54.9474 3.4425,-14.7384 18.6147,-27.1959 33.3025,-30.8483 14.7982,-3.6798 33.4155,0.9896 44.2273,11.7428 4.1564,4.134 6.4929,11.4265 4.6016,16.9752 -1.9373,5.6837 -2.6889,8.1815 -10.3793,11.1974 -0.631,-4.9713 -1.6828,-7.3577 -5.3005,-7.3627 -4.1743,-0.01 -11.748,3.1455 -26.025,9.05 -30.4577,12.5962 -30.4673,12.5863 1.3975,16.225 26.4126,3.0163 30.9279,3.5161 30.8994,-5.6411 11.2436,-3.3149 15.6715,-5.2779 22.0029,-14.4017 7.8738,-11.3462 6.8177,-22.7849 0.1363,-32.9104 -11.0521,-16.7492 -34.1283,-26.7455 -61.867,-27.0307 -27.012,-0.2775 -50.0418,15.1882 -60.6398,42.0969 -10.598,26.9087 -3.8987,63.0852 30.5415,89.4429 10.233,7.8316 21.512,17.977 30.2006,27.8828 8.6887,9.9059 14.3053,20.1194 15.0832,24.3888 0.3891,2.1349 0.1083,2.0528 0.1023,2.0624 -0.01,0.01 -0.6623,1.1446 -4.721,2.4713 -6.7567,2.2085 -21.6984,3.36403 -45.0623,0.7839 -0.2205,-0.9126 -0.4835,-1.8457 -0.8181,-2.8122 -7.5117,-21.7023 -46.0817,-81.6553 -83.9038,-106.2988 -15.0227,-9.7881 -33.3459,-13.9267 -51.8967,-14.1287 2.648,-6.2132 6.9525,-10.4813 12.4927,-16.4297 9.1156,-9.7875 22.2399,-24.825 21.7472,-48.4369 -0.406,-19.4451 -3.4866,-35.4621 -3.7496,-46.051 -0.2631,-10.5885 0.031,-12.9701 6.1015,-17.0773 0.45,-0.3044 1.0601,-0.7911 6.0844,1.0909 5.0244,1.8819 12.188,6.2164 19.6168,10.9417 7.4289,4.7253 14.9752,9.8687 23.8776,13.1403 3.3332,1.2252 6.0571,0.5471 9.7147,-0.1363 -21.4726,20.3412 -20.4754,20.5628 8.7431,13.8051 6.268,17.7537 16.3735,10.8278 53.959,-14.9811 41.4209,-28.4428 49.423,-33.9837 19.3099,-42.8296 -3.0528,-2.5885 -9.5658,-6.5178 -19.3441,-12.4586 -14.9536,-9.0855 -22.2591,-13.5419 -26.5874,-13.5494 -0.4476,0 -0.855,0.042 -1.2442,0.1363 -3.2286,0.7811 -4.6323,4.8135 -7.0729,11.9985 -0.053,0.158 -0.084,0.2882 -0.1364,0.4431 -13.0333,-2.7557 -20.931,-3.4295 -25.2751,-0.9033 -4.3441,2.5262 -5.1331,8.2553 -4.0222,18.2874 -5.1944,1.403 -9.5597,2.6041 -13.2766,3.6644 -0.9033,-0.5665 -1.7677,-1.1159 -2.6929,-1.7044 -7.5064,-4.7748 -15.7297,-10.1317 -25.1729,-13.6687 -4.7215,-1.7687 -10.2921,-3.0616 -16.0547,-2.9996 -5.7626,0.062 -11.7037,1.4829 -17.0944,5.13 -14.9809,10.1356 -19.523,27.6602 -19.1566,42.4035 0.3661,14.7434 3.3893,29.4702 3.7325,45.9145 0.2921,13.9948 -4.4597,17.5788 -13.771,27.5761 -4.387,4.7104 -9.6364,10.7015 -14.0607,18.3726 -1.92168,-6.2826 -4.25888,-11.8764 -6.22068,-16.8047 -4.8623,-12.2142 -7.855,-20.1059 -4.4313,-33.5412 5.3839,-21.1275 18.70778,-37.3019 25.95688,-58.1515 3.6245,-10.4246 5.0867,-23.059 0.5454,-35.4669 -2.756,-7.5301 -6.8406,-15.3229 -12.8847,-22.8721 20.0318,8.5602 17.501,5.0422 -0.9544,-19.68488 6.7293,-6.85593 9.4869,-11.60996 7.7205,-16.05478 -1.7663,-4.44469 -8.0535,-8.58025 -19.42918,-14.18005 0.052,-0.14673 0.1007,-0.27628 0.1533,-0.42599 2.3974,-6.81268 3.7132,-10.64064 1.7555,-13.12331 -2.5169,-3.19198 -10.4732,-4.14331 -28.7178,-6.34001 -10.8118,-1.30183 -18.0086,-2.17104 -21.8154,-2.02823 -6.935,-2.77038 -11.9531,-4.29622 -15.3731,-4.31192 z m 27.167,10.03855 c 2.5285,-0.0111 6.9715,0.51752 13.4301,1.2952 20.6675,2.48847 20.6711,2.48519 17.1796,12.40752 -3.4916,9.92225 -3.4974,9.92232 -20.6735,-2.48832 -11.8085,-8.5324 -15.499,-11.18977 -9.9362,-11.2144 z m 29.5189,33.06383 c 2.0907,-0.0997 4.5834,3.24793 10.7202,11.47008 3.8759,5.19291 6.29028,8.42421 6.98768,10.08961 1.1624,2.7758 -2.45628,1.1668 -12.13478,-3.136 -15.4855,-6.88468 -15.4951,-6.87589 -10.3452,-13.83912 2.0921,-2.82878 3.3416,-4.51641 4.7721,-4.58457 z m -17.9124,18.66229 c 0.9486,0.011 1.6123,0.5826 2.1645,1.9259 0.8635,2.1009 1.4662,6.1056 2.4712,12.8335 2.4738,16.5611 2.4674,16.5592 -7.6013,4.0393 -10.0686,-12.5197 -10.0661,-12.5249 -2.4713,-16.566 2.5366,-1.3498 4.2173,-2.2469 5.4369,-2.2327 z m 192.00908,31.1891 c 2.7808,0.1115 7.4587,2.9457 16.8047,8.624 18.6919,11.3566 18.7014,11.3567 -3.545,10.4644 -22.2464,-0.8921 -22.2509,-0.8863 -18.6964,-11.3507 1.7771,-5.2322 2.6559,-7.8492 5.4367,-7.7377 z m -17.6227,26.025 c 3.6435,-0.1003 3.5825,2.0986 3.4257,7.4992 -0.2637,9.0955 -0.2571,9.0992 -17.5205,4.7379 -4.5482,-1.1489 -7.8923,-1.9994 -10.0384,-2.7098 -0.8994,-0.4782 -1.848,-1.0033 -2.8633,-1.585 -0.077,-0.3235 0.2057,-0.6548 0.8351,-1.0056 1.6573,-0.9235 5.7496,-2.0251 12.3223,-3.8006 7.1204,-1.9233 11.3462,-3.0672 13.8391,-3.1361 z m 4.0392,27.2351 c 1.6295,0.072 2.5321,2.1301 4.1586,5.8118 3.653,8.268 3.645,8.2562 -12.7995,12.0667 -16.4445,3.8105 -16.4389,3.8125 -3.6472,-8.266 5.1966,-4.9069 8.2854,-7.8233 10.3623,-8.9988 0.7589,-0.4295 1.3828,-0.6373 1.9258,-0.6137 z m -341.47839,5.9141 c 1.6839,0.1017 3.5014,1.7807 6.3913,4.4653 7.7062,7.1593 7.6989,7.1632 -10.5328,17.9637 -18.2316,10.8004 -18.2289,10.8015 -7.7035,-7.1582 6.5784,-11.2249 9.0385,-15.4402 11.845,-15.2708 z m 50.5503,5.5391 c 3.009,0.042 0.086,2.726 -7.7206,9.885 -12.4899,11.4546 -12.4904,11.4539 -16.8216,3.9541 -4.3314,-7.4997 -4.3285,-7.4985 12.4926,-11.4531 6.308,-1.483 10.2442,-2.4107 12.0496,-2.386 z m -14.2481,30.2859 c 2.2709,0.046 6.1779,1.1013 12.7483,2.8632 16.1733,4.337 16.1786,4.3332 0.6818,8.5727 -15.4969,4.2394 -15.4976,4.2474 -16.1741,-4.3289 -0.4016,-5.0923 -0.5751,-7.1743 2.744,-7.107 z m 382.72309,69.4 c 2.2367,0.01 2.4074,1.9214 2.7609,5.9993 0.6654,7.676 0.6644,7.6683 -14.4015,5.9481 -15.0659,-1.7205 -15.0653,-1.7141 -0.6647,-7.6696 6.7502,-2.7917 10.3316,-4.2805 12.3053,-4.2778 z M 991.84722,979.7308 c 0.285,0.3042 0.5721,0.6135 0.8522,0.9032 8.08358,8.3627 9.41868,12.23353 11.28258,15.47543 2.6865,4.67217 3.2055,6.40707 0.5795,9.83387 -1.7354,2.2646 -5.68928,5.9814 -12.27108,8.1637 5.4238,-2.8221 9.03418,-5.7334 4.9936,-16.60007 -2.2593,-6.0765 -3.8381,-11.91923 -5.4368,-17.77613 z m 93.31178,25.6671 c 2.5649,0.015 3.0682,2.5713 4.0734,7.6864 2.01,10.2307 2.0105,10.2328 -18.5091,10.1066 -20.5194,-0.1261 -20.5204,-0.1215 -2.011,-10.2257 9.2547,-5.0522 13.8818,-7.5831 16.4467,-7.5674 z m -142.29398,12.9698 c 1.478,0.041 1.9234,1.3964 2.7951,4.0734 1.7501,5.3751 1.7568,5.3714 -10.1749,5.1301 -11.9315,-0.2414 -11.9369,-0.2349 -1.7554,-5.3686 4.7725,-2.4066 7.3011,-3.6922 8.8284,-3.8178 0.1082,-0.01 0.2082,-0.021 0.3068,-0.017 z m 32.8252,2.0964 c 0.016,0 0.035,-2e-4 0.051,0 1.2722,0.024 1.6567,1.1674 2.4031,3.4598 1.4929,4.5849 1.4853,4.586 -8.692,4.38 -10.1775,-0.2057 -10.1845,-0.2056 -1.4998,-4.5845 3.1548,-1.5907 5.1589,-2.5924 6.5105,-3.0168 0.4094,-0.073 0.8181,-0.1621 1.2271,-0.2385 z"
       id="path7448-0-2"
       inkscape:connector-curvature="0" />
    <path
       style="fill:#f72f2f;fill-opacity:0;fill-rule:nonzero;stroke:none"
       d="m 170.53891,604.18287 c 2.79614,0.0131 6.88486,1.26147 12.5555,3.52666 3.11247,-0.11687 9.01449,0.6159 17.85462,1.68024 3.7296,0.449 6.93654,0.83517 9.67512,1.20014 8.21584,1.0949 12.24902,2.01224 13.79261,3.96978 0.40018,0.50742 0.64443,1.0881 0.73855,1.75405 0.0941,0.66595 0.0455,1.42329 -0.11079,2.28952 -0.31053,1.73644 -1.06955,3.9172 -2.04947,6.70239 -0.0401,0.12153 -0.0867,0.21437 -0.12926,0.33241 2.32539,1.14465 4.39206,2.21166 6.20388,3.23117 1.81218,1.01892 3.3761,1.97963 4.68985,2.9173 1.31376,0.93768 2.36422,1.85024 3.19429,2.75111 0.006,0.006 -0.006,0.0147 0,0.0183 0.82968,0.90145 1.42986,1.78719 1.79098,2.69575 0.1805,0.45429 0.30351,0.92023 0.36928,1.38481 0.0635,0.45902 0.0835,0.92817 0.0366,1.40326 -0.0472,0.48131 -0.15551,0.97361 -0.31392,1.47713 -0.79203,2.51357 -2.96788,5.34072 -6.40696,8.8442 11.31755,15.1635 15.31532,20.56838 9.6936,19.36873 -0.93683,-0.2 -2.13757,-0.5743 -3.61892,-1.12634 -0.006,0 -0.0124,-0.016 -0.0183,-0.0183 -1.4815,-0.55197 -3.23347,-1.26695 -5.2807,-2.14182 4.94869,6.17743 8.28733,12.56011 10.54295,18.72252 0.46406,1.26813 0.84626,2.53379 1.16318,3.80351 0.63386,2.53953 0.9892,5.07054 1.10785,7.5703 0.11863,2.49968 0.006,4.96871 -0.29543,7.36707 -0.44793,3.59756 -1.30743,7.05112 -2.41874,10.24748 -0.74092,2.13101 -1.56373,4.1956 -2.43723,6.22239 -4.36761,10.13403 -10.10833,19.16884 -14.43888,29.00685 -1.73219,3.93528 -3.23843,7.99669 -4.33901,12.31546 -0.69985,2.74632 -1.07919,5.20797 -1.18169,7.51489 -0.10251,2.30691 0.0643,4.45421 0.44313,6.5732 0.75777,4.23771 2.36983,8.35575 4.35749,13.3494 1.60286,4.02564 3.50728,8.58765 5.07757,13.7187 3.61681,-6.26397 7.91911,-11.14403 11.50307,-14.99272 1.90336,-2.04358 3.57231,-3.75179 5.00376,-5.35453 0.71592,-0.80163 1.36148,-1.59125 1.95712,-2.36338 0.59568,-0.77221 1.13259,-1.53014 1.60639,-2.32649 1.8939,-3.18397 2.81509,-6.7787 2.69574,-12.50011 -0.0702,-3.36148 -0.27681,-6.63195 -0.55392,-9.84125 -0.55422,-6.41866 -1.37981,-12.57772 -1.93868,-18.64867 -0.27947,-3.03541 -0.49762,-6.05198 -0.57242,-9.06577 -0.29962,-12.05498 3.42656,-26.38775 15.67587,-34.67532 4.40795,-2.98229 9.26548,-4.13995 13.97726,-4.19135 4.71206,-0.0501 9.26713,1.00958 13.12784,2.45574 7.72124,2.89207 14.43119,7.26635 20.56891,11.17073 0.74973,0.47663 1.46518,0.90717 2.19718,1.36626 3.03856,-0.86706 6.61028,-1.82547 10.8568,-2.97266 -0.79473,-7.17743 -0.38877,-11.64293 2.1049,-14.03261 0.006,-0.006 -0.006,-0.0154 0,-0.0184 0.35604,-0.34174 0.75617,-0.62806 1.20013,-0.88627 0.44403,-0.25819 0.92172,-0.48644 1.45868,-0.66471 0.53697,-0.1783 1.13745,-0.32278 1.77254,-0.42469 1.2702,-0.20384 2.73775,-0.24645 4.43135,-0.16615 3.38455,0.15652 7.65159,0.84893 12.9802,1.97562 0.0402,-0.12644 0.0866,-0.24018 0.12922,-0.36928 1.49667,-4.4059 2.51464,-7.3554 4.04357,-8.82577 0.50966,-0.49012 1.07565,-0.81899 1.73567,-0.97856 0.21217,-0.0514 0.45029,-0.0514 0.68314,-0.0738 0.43652,-0.0312 0.90033,-0.016 1.4217,0.0738 0.52143,0.0899 1.09426,0.24945 1.71718,0.46156 3.73733,1.26872 9.45744,4.74231 18.94401,10.50596 7.99528,4.85777 13.30913,8.07553 15.80515,10.1921 24.62248,7.2328 18.08176,11.76969 -15.7867,35.02617 -9.11517,6.2592 -16.06702,10.96554 -21.73206,14.3834 -1.50146,0.90654 -3.07205,1.90744 -4.37593,2.60346 -2.07346,1.10677 -3.92222,1.93318 -5.55768,2.49259 -4.90911,1.67783 -8.01129,0.84764 -10.33982,-2.73267 -0.77619,-1.19338 -1.4643,-2.69064 -2.1049,-4.5052 -5.96879,1.38052 -10.48272,2.41794 -13.64488,2.91736 -1.58106,0.24969 -2.82283,0.36562 -3.72967,0.33231 -0.45347,-0.0165 -0.81956,-0.0709 -1.10784,-0.16615 -0.01,-0.006 -0.009,-0.0155 -0.0183,-0.0183 -0.28804,-0.0951 -0.48414,-0.22736 -0.60934,-0.40627 -0.25034,-0.3577 -0.18416,-0.88202 0.20314,-1.60633 1.1619,-2.1729 5.15413,-6.09005 11.72464,-12.31544 -2.97497,0.55647 -5.20523,1.09053 -7.92105,0.0923 -7.27906,-2.67505 -13.44196,-6.88235 -19.51644,-10.74601 -6.07415,-3.86362 -11.93689,-7.39783 -16.04517,-8.93657 -3.00421,-1.1255 -4.05875,-1.20308 -4.56063,-1.07091 -0.18434,0.0485 -0.30729,0.11776 -0.40615,0.18464 -1.24101,0.83959 -2.18193,1.59222 -2.89887,2.38188 -0.35899,0.39474 -0.65158,0.78865 -0.90475,1.21857 -0.25311,0.42996 -0.46382,0.88798 -0.62772,1.38481 -0.65289,1.98761 -0.66192,4.64447 -0.55399,8.97349 0.10755,4.32902 0.78389,9.76287 1.47713,16.10059 0.34808,3.17024 0.71167,6.55744 0.99711,10.15517 0.28537,3.59772 0.4894,7.39891 0.57236,11.37384 0.0502,2.41329 -0.0629,4.72429 -0.33235,6.92396 -0.26861,2.19334 -0.68799,4.28633 -1.21862,6.27777 0,0.008 0,0.0121 0,0.0184 -0.53283,1.99649 -1.18028,3.88294 -1.92025,5.68692 -0.73999,1.80399 -1.5833,3.51091 -2.47419,5.13298 -3.56392,6.4876 -8.10871,11.56371 -11.83535,15.56504 -4.53358,4.86771 -8.02584,8.37205 -10.19212,13.46026 1.89579,0.0208 3.78301,0.0794 5.66842,0.20309 1.88539,0.12369 3.76641,0.30337 5.63154,0.5355 5.59383,0.69673 11.07121,1.90065 16.30364,3.67431 1.74471,0.59109 3.46667,1.23536 5.1514,1.95719 1.68481,0.72184 3.33345,1.52356 4.94835,2.38184 1.61472,0.85843 3.19158,1.78786 4.72677,2.78812 20.80561,13.55634 41.69654,40.04981 55.13346,61.42955 4.0337,6.41815 7.56484,12.50902 10.00741,17.48534 1.51504,3.08659 2.68338,5.79047 3.45278,8.01342 0.27185,0.78527 0.48661,1.54786 0.6647,2.2895 4.77653,0.52748 9.13562,0.85362 13.05405,1.03394 3.91838,0.18032 7.40249,0.20944 10.46905,0.11078 6.13464,-0.19957 10.56841,-0.88804 13.33097,-1.791 3.31885,-1.08462 3.859,-2.01253 3.85894,-2.01253 0.006,-0.008 0.22582,0.0658 -0.0923,-1.68021 -0.31794,-1.74567 -1.61839,-4.71242 -3.72973,-8.25349 -2.11132,-3.541 -5.0336,-7.6563 -8.58576,-11.70608 -1.77603,-2.02498 -3.69149,-4.05926 -5.68691,-6.07468 -5.98611,-6.04636 -12.74237,-11.90718 -19.01781,-16.70984 -1.76003,-1.34693 -3.43725,-2.73004 -5.02221,-4.13593 -1.5886,-1.4091 -3.06985,-2.84137 -4.48676,-4.30205 -19.78829,-20.39898 -23.05395,-45.44878 -15.4728,-64.69775 1.62477,-4.12543 3.61386,-7.92975 5.90846,-11.37384 1.52977,-2.29609 3.19164,-4.4308 4.98527,-6.407 7.17447,-7.90463 16.34886,-13.19812 26.66197,-15.43589 1.28899,-0.27987 2.59152,-0.51794 3.91436,-0.70154 1.32284,-0.18361 2.6718,-0.30224 4.02514,-0.38775 1.35339,-0.0855 2.71859,-0.12498 4.09899,-0.11086 2.83513,0.0289 5.60437,0.17078 8.30879,0.44318 2.35629,0.23735 4.62828,0.6186 6.8686,1.03402 10.62247,1.96458 19.87241,5.84647 26.88351,11.41067 1.70129,1.35013 3.26195,2.80095 4.68986,4.33903 1.42127,1.53101 2.71352,3.1481 3.8405,4.85607 3.41433,5.17453 5.0297,10.77081 4.19135,16.50675 -0.50306,3.4416 -1.88776,6.93454 -4.30214,10.41369 -1.29165,1.86117 -2.50264,3.35698 -3.71128,4.59755 -0.60869,0.62478 -1.198,1.19012 -1.8279,1.69867 -3.13421,2.53054 -6.71219,3.78861 -12.46315,5.48374 0.013,3.7477 -0.89241,5.5123 -4.5052,6.03777 -1.80646,0.26271 -4.30007,0.21305 -7.68101,-0.0554 -3.381,-0.26838 -7.65312,-0.74959 -13.05405,-1.36625 -6.51367,-0.74391 -11.40288,-1.30403 -14.67887,-1.88341 -2.45699,-0.43458 -3.9998,-0.87552 -4.65292,-1.42168 -1.95932,-1.63875 4.16003,-4.17717 18.16853,-9.97052 11.67371,-4.8281 17.87595,-7.40413 21.28898,-7.40413 2.95625,0.008 3.80434,1.9604 4.32057,6.01925 1.57265,-0.61659 2.79931,-1.19838 3.76664,-1.80943 0.96733,-0.61107 1.68309,-1.2571 2.2526,-1.9572 1.13898,-1.4002 1.68197,-3.06741 2.47417,-5.3915 0.19332,-0.56711 0.33567,-1.15057 0.42471,-1.75409 0.267,-1.8104 0.071,-3.75524 -0.46163,-5.61305 -0.71014,-2.47689 -2.03044,-4.80923 -3.72972,-6.49932 -8.84037,-8.79259 -24.05266,-12.62836 -36.15243,-9.61967 -1.50123,0.3734 -3.01096,0.87031 -4.5052,1.45867 -1.49427,0.58836 -2.96471,1.26712 -4.41287,2.04951 -1.44816,0.7824 -2.86526,1.66642 -4.22827,2.62184 -1.36315,0.9555 -2.67536,1.99433 -3.91436,3.10199 -1.23895,1.10838 -2.41414,2.28702 -3.48973,3.52663 -1.07575,1.23873 -2.04374,2.52847 -2.91725,3.8774 -0.87357,1.34893 -1.63888,2.75322 -2.27109,4.19128 -0.6322,1.43814 -1.14371,2.90651 -1.49556,4.41298 -2.27858,9.75475 -3.46099,18.39648 1.25555,27.54827 0.94329,1.83029 2.12848,3.67341 3.58195,5.55761 1.45355,1.88412 3.18473,3.81517 5.22534,5.77917 2.04061,1.96401 4.38573,3.96797 7.09016,6.03778 7.13435,5.45999 14.61814,11.92081 21.51048,18.90702 0.006,0.008 0.0155,-0.008 0.0184,0 2.29827,2.32954 4.51832,4.71859 6.64702,7.14559 8.51487,9.70767 15.7989,19.61971 17.98391,31.61024 1.09217,5.9951 0.45536,13.11245 -3.30509,19.05486 -0.93997,1.48553 -2.01774,2.84185 -3.23116,4.0805 -0.006,0.008 -0.0155,-0.008 -0.0183,0 -3.63843,3.71577 -8.38524,6.34916 -13.58946,8.0503 -1.71282,0.55989 -3.5208,1.04638 -5.40992,1.44016 -1.88912,0.39383 -3.86874,0.70554 -5.94539,0.94169 -6.23025,0.71012 -13.3155,0.7224 -21.4367,0.16612 -8.12112,-0.5562 -17.26908,-1.68961 -27.5851,-3.28657 -5.11589,1.70966 -10.5515,2.64254 -14.95586,3.13898 -4.40429,0.49627 -7.77726,0.55587 -8.73343,0.51689 -0.51775,-0.0217 -1.0569,0.0601 -1.60639,0.18465 -0.54942,0.12401 -1.10932,0.30321 -1.66169,0.4986 -1.10477,0.39072 -2.17662,0.83623 -3.12044,1.07084 0.0526,1.08512 0,2.01656 -0.18464,2.84354 -0.71906,3.26506 -3.50533,4.66489 -10.30289,5.2252 -1.70372,0.14043 -3.65256,0.24224 -5.88998,0.29546 -4.47496,0.10635 -10.0854,0.0611 -17.0607,0.0182 -4.43579,-0.0272 -8.31729,-0.0562 -11.65079,-0.11081 -3.33338,-0.0545 -6.11951,-0.125 -8.36413,-0.27698 -2.24469,-0.1519 -3.94498,-0.38366 -5.11457,-0.70164 -5.84872,-1.58785 1.65207,-5.67742 21.65827,-16.59914 2.86088,-1.56197 5.37989,-2.94588 7.75486,-4.22817 -1.17957,0.0377 -2.40072,0.0434 -3.65592,-0.0184 -1.25514,-0.0618 -2.54673,-0.1792 -3.87737,-0.36931 -2.66225,-0.37692 -5.47474,-1.04476 -8.43806,-2.10493 -7.17844,-2.56833 -15.88492,-5.75351 -25.05563,-9.49046 0.88256,3.18004 1.83836,6.37579 3.06508,9.6751 3.5904,9.65642 -1.47435,10.31183 -6.79473,13.29407 -7.58931,4.25429 -15.23345,1.80375 -23.04302,8.1611 -0.59906,2.25724 -4.55354,2.17407 -16.17443,1.93876 -5.9058,-0.11931 -9.81437,-0.19661 -11.85392,-0.53547 -2.68072,0.63911 -7.70925,0.52672 -16.41443,0.35082 -5.15856,-0.10437 -9.02258,-0.17277 -11.65079,-0.36922 -1.16148,-0.0869 -1.97834,-0.22343 -2.65881,-0.36931 -1.2539,-0.26699 -1.80379,-0.6339 -1.47711,-1.21863 0.30221,-0.54092 1.26653,-1.25659 2.88037,-2.19725 2.15181,-1.2542 5.45789,-2.91348 9.85982,-5.13305 8.80379,-4.43914 13.20754,-6.66328 15.78666,-6.61002 1.01761,0.02 1.75493,0.39536 2.36338,1.12626 4.73067,-0.0877 8.66198,-0.99793 11.85387,-2.27114 2.12793,-0.84865 3.91931,-1.86751 5.40991,-2.89881 2.236,-1.54697 3.78301,-3.13719 4.68991,-4.32058 2.51711,-3.28479 2.00267,-4.93781 -0.57242,-9.41657 -1.78702,-3.10761 -3.07105,-6.81007 -10.81988,-14.82661 -2.10755,-2.18025 -4.38007,-4.78797 -6.46239,-7.75488 -2.08232,-2.96683 -3.97456,-6.29277 -5.31762,-9.89665 -6.06759,-6.00216 -10.37653,-12.47885 -11.98308,-19.40554 -0.53378,-2.30107 -0.78394,-4.65467 -0.6832,-7.05327 0.10103,-2.40469 0.53773,-4.86651 1.3479,-7.36714 0.66849,-2.06339 1.66612,-4.15037 2.86188,-6.27777 2.42697,-4.31761 5.91503,-8.7581 10.76446,-13.33088 0.006,-0.008 -0.006,-0.0153 0,-0.0184 1.44775,-1.36513 3.00677,-2.73019 4.68991,-4.11747 -0.0437,-8.03908 -3.74798,-20.2096 -11.28151,-32.21962 -4.74503,-7.56462 -10.74892,-14.97387 -17.13455,-21.39971 -1.59618,-1.60674 -3.22657,-3.14618 -4.85606,-4.61608 -1.62944,-1.46974 -3.25787,-2.86624 -4.89292,-4.17274 -3.27046,-2.61278 -6.53033,-4.88183 -9.65668,-6.68406 -5.98049,-3.44746 -14.59782,-2.40952 -24.5755,-1.60632 6.60815,1.83685 10.45538,3.11321 11.57687,4.28367 0.18694,0.19499 0.29654,0.3806 0.33241,0.57232 0.0366,0.19676 -0.008,0.39295 -0.12928,0.59084 -0.23438,0.38093 -0.76839,0.77101 -1.5879,1.1817 -0.82967,0.41591 -1.95168,0.86686 -3.37887,1.34789 -2.85444,0.96215 -6.90416,2.07598 -12.13084,3.50819 0.70847,4.52375 0.26221,7.52988 -1.75406,9.41657 -0.40308,0.37716 -0.85223,0.72529 -1.38482,1.01549 -0.53259,0.29029 -1.14051,0.529 -1.80948,0.7386 -6.02273,1.88837 -17.710976,0.63585 -37.555688,-1.49557 -17.009888,-1.827 -28.019478,-3.01447 -33.567528,-5.20685 -1.578981,-0.62389 -2.70874,-1.33474 -3.415861,-2.16028 -0.712565,-0.83189 -0.996818,-1.78442 -0.849287,-2.89881 0.367274,-2.77512 3.364872,-6.53879 8.788846,-11.90926 1.134155,-2.90111 4.138752,-8.03083 8.641181,-15.71285 7.597344,-12.96353 10.891905,-18.61463 14.106467,-19.46101 1.249759,-0.32893 2.487288,0.0694 3.951229,1.05247 0.732413,0.49064 1.523557,1.11795 2.400373,1.88326 0.876758,0.76538 1.835643,1.67253 2.917247,2.67731 0.09536,0.0892 0.181212,0.1532 0.276989,0.24006 7.908426,-6.70321 13.059783,-10.05828 16.968412,-9.93367 0.494421,0.016 0.964262,0.0752 1.421691,0.20314 0.452535,0.1252 0.888522,0.30009 1.310971,0.53542 0.422403,0.23539 0.820215,0.5216 1.218564,0.86784 0.0056,0 -0.0056,0.016 0,0.0183 1.990804,1.72999 3.716314,4.84706 5.557684,9.39818 11.63885,-2.73627 18.55802,-4.36051 21.23355,-4.00672 0.34902,0.0461 0.60657,0.12486 0.81242,0.24007 1.37212,0.76827 -0.39853,3.11896 -5.0222,7.60715 0.85153,-0.19362 1.77697,-0.36188 2.82496,-0.49849 1.04804,-0.13666 2.21402,-0.22866 3.52665,-0.29543 10.37821,-0.53088 21.2745,0.88475 31.46258,6.75775 3.46395,1.99689 6.88791,4.26426 10.22903,6.75787 3.34113,2.49356 6.60325,5.21358 9.76747,8.12415 1.5788,1.45224 3.12818,2.96398 4.65292,4.5052 1.53094,1.54746 3.03559,3.1181 4.5052,4.74521 2.93309,3.24758 5.73476,6.65036 8.38259,10.15518 -0.36148,-5.50524 0.0366,-11.45992 1.66181,-17.83619 5.86734,-23.02612 18.09255,-38.91262 21.78747,-49.53883 1.84705,-5.31326 2.10466,-8.47967 0.57236,-12.66623 -0.62612,-1.71073 -1.25011,-4.14106 -2.43725,-6.96094 -0.59356,-1.40993 -1.32001,-2.91168 -2.27104,-4.46827 -0.95019,-1.55553 -2.11026,-3.16606 -3.56357,-4.78219 1.21372,8.47569 1.62861,13.03176 0.57236,14.0511 -0.15457,0.14918 -0.33348,0.2231 -0.55387,0.22157 -0.8641,-0.006 -2.24262,-1.16184 -4.28363,-3.39737 -2.0366,-2.23063 -4.72707,-5.52903 -8.198,-9.84132 -3.09261,1.9632 -5.5997,2.86371 -7.77336,2.58495 -1.63026,-0.20904 -3.07134,-1.08729 -4.44983,-2.67725 -4.13546,-4.76996 -7.64734,-15.97833 -13.60793,-35.02611 -4.37947,-13.99473 -7.42256,-23.75818 -8.32728,-30.02245 -0.45087,-3.12227 -0.36383,-5.3789 0.35086,-6.8501 0.17914,-0.36881 0.40437,-0.68804 0.6647,-0.96013 0.52425,-0.54795 1.19523,-0.89797 2.06795,-1.07091 0.43357,-0.0859 0.91588,-0.13158 1.44019,-0.12928 z"
       id="path4000"
       inkscape:connector-curvature="0" />
    <path
       style="fill:#ffffff;fill-opacity:1;fill-rule:nonzero;stroke:none"
       d="m 256,555.79518 c -132.86245,0 -240.566968,107.7045 -240.566968,240.56696 0,132.86242 107.704518,240.56706 240.566968,240.56706 132.86245,0 240.56697,-107.70464 240.56697,-240.56706 C 496.56697,663.49969 388.86245,555.79518 256,555.79518 z m -78.108,54.24705 c 2.67069,0.0122 6.57596,1.20483 11.9922,3.3684 2.97283,-0.1116 8.6101,0.58822 17.05362,1.60483 14.24886,1.71554 20.44906,2.44505 22.41481,4.93796 1.52886,1.93883 0.51409,4.94339 -1.35793,10.2639 -0.0383,0.11609 -0.0828,0.20476 -0.12345,0.31745 8.88427,4.37329 13.78685,7.62154 15.16659,11.09279 1.37936,3.47123 -0.77567,7.16715 -6.03135,12.52126 14.41303,19.31087 16.38359,22.04517 0.74068,15.3606 4.72669,5.90021 7.9155,11.99653 10.06993,17.88247 3.54628,9.68997 2.40735,19.54648 -0.42325,27.68785 -5.66141,16.28315 -16.05864,28.91139 -20.2633,45.41163 -2.67383,10.49241 -0.34046,16.66724 3.45658,26.20648 1.53092,3.84506 3.34989,8.2024 4.84978,13.10323 3.45449,-5.98293 7.56381,-10.64405 10.98698,-14.32008 7.27189,-7.80752 10.98562,-10.60362 10.7577,-21.53306 -0.2679,-12.84271 -2.64174,-24.35635 -2.92752,-35.87077 -0.28616,-11.51414 3.27281,-25.20387 14.97262,-33.11961 4.21014,-2.84851 8.84975,-3.95418 13.35013,-4.00328 4.50066,-0.0482 8.8514,0.96426 12.53889,2.34553 7.37478,2.76233 13.7837,6.94031 19.64605,10.66951 0.71615,0.45527 1.39947,0.86656 2.09863,1.30504 2.90222,-0.82821 6.3137,-1.74361 10.36972,-2.83933 -0.86756,-7.83477 -0.23581,-12.29415 3.15678,-14.26717 3.39257,-1.97282 9.53754,-1.4645 19.71657,0.68778 0.0384,-0.12076 0.0828,-0.2294 0.12345,-0.35271 1.90606,-5.61099 2.9983,-8.75462 5.51993,-9.36449 0.20266,-0.0491 0.43012,-0.049 0.65253,-0.0705 3.33557,-0.24115 9.0109,3.20595 21.09216,10.54607 7.63657,4.63971 12.71199,7.71311 15.09605,9.73484 23.51778,6.9083 17.27053,11.24161 -15.07842,33.45469 -29.3534,20.15633 -37.23634,25.55747 -42.13142,11.69241 -22.80401,5.2742 -23.59547,5.09868 -6.86024,-10.75771 -2.84143,0.53155 -4.97167,1.04164 -7.56566,0.0882 -6.95249,-2.55503 -12.83884,-6.57357 -18.6408,-10.26389 -5.80174,-3.69027 -11.40137,-7.06592 -15.32532,-8.53563 -3.92379,-1.46998 -4.3925,-1.08426 -4.74397,-0.8465 -4.74117,3.20781 -4.96788,5.0629 -4.76161,13.33249 0.20536,8.26958 2.59305,20.75514 2.90985,35.94131 0.38512,18.44028 -9.86402,30.18454 -16.98304,37.82832 -4.33007,4.64925 -7.66571,7.99637 -9.73485,12.85635 14.48618,0.15841 28.79572,3.37906 40.52657,11.02224 29.53794,19.24619 59.6496,66.07941 65.51618,83.02832 0.25966,0.75019 0.46479,1.47859 0.63488,2.18683 18.24896,2.01559 29.92344,1.10763 35.20062,-0.61728 3.16994,-1.03595 3.68585,-1.92225 3.68585,-1.92225 0.007,-0.008 0.21565,0.0627 -0.0882,-1.60486 -0.60728,-3.33457 -4.97733,-11.32775 -11.76293,-19.06406 -6.78537,-7.73653 -15.60452,-15.64606 -23.5964,-21.76231 -26.89678,-20.5847 -32.13777,-48.83922 -23.86095,-69.85452 8.27677,-21.01497 26.27348,-33.08966 47.36918,-32.87274 21.66343,0.2224 39.68975,8.01146 48.32149,21.09214 5.21782,7.90786 6.04361,16.85116 -0.10584,25.7127 -4.9467,7.12818 -8.40586,8.66095 -17.19469,11.25149 0.0247,7.15898 -3.491,6.76507 -24.12548,4.4089 -24.88569,-2.84167 -24.88015,-2.84263 -1.09339,-12.67999 11.14997,-4.61143 17.07391,-7.07186 20.33381,-7.07186 2.82361,0.003 3.63367,1.87242 4.12672,5.74919 6.0084,-2.35576 6.5991,-4.30764 8.11239,-8.74724 1.47697,-4.33327 -0.35159,-10.01591 -3.59767,-13.24432 -8.44374,-8.39821 -22.97354,-12.06186 -34.53048,-9.18813 -11.47096,2.85272 -23.3239,12.59746 -26.01249,24.10782 -3.48206,14.9076 -4.28142,27.09184 16.38348,42.90737 9.08567,6.9534 18.7792,15.61167 26.91189,24.88381 8.13286,9.2722 15.09007,18.73961 17.17705,30.19214 1.04318,5.72623 0.43486,12.52425 -3.15675,18.19992 -3.59141,5.67563 -9.45607,9.42006 -16.08365,11.58657 -13.08788,4.27803 -31.3931,3.3618 -57.66836,-0.70543 -9.77272,3.26578 -20.79991,3.56621 -22.62646,3.49182 -1.97818,-0.0803 -4.29901,1.22716 -6.1019,1.67544 0.39634,8.20597 -5.28851,8.17034 -31.93804,8.00655 -33.89395,-0.20834 -33.88915,-0.20441 -3.31549,-16.89488 2.73258,-1.4921 5.1386,-2.81387 7.40694,-4.03861 -4.50657,0.14375 -9.594,-0.35547 -15.25477,-2.38077 -6.85638,-2.45318 -15.17222,-5.4954 -23.9315,-9.06468 0.84285,3.03744 1.75589,6.08978 2.92752,9.24104 3.42937,9.22317 -1.40813,9.84918 -6.48989,12.69759 -7.24877,4.06345 -14.54995,1.72275 -22.00921,7.79495 -0.57218,2.15593 -4.34925,2.07649 -15.44878,1.85171 -5.64078,-0.11395 -9.37411,-0.18774 -11.32204,-0.51136 -2.56057,0.61022 -7.36339,0.50303 -15.67803,0.33501 -19.70845,-0.39891 -19.72754,-0.39096 -2.90987,-8.87064 8.40887,-4.24009 12.61503,-6.36436 15.07842,-6.31356 0.97197,0.0194 1.6762,0.37764 2.25736,1.0757 12.04914,-0.22344 18.64123,-6.05058 20.95107,-9.06465 2.40426,-3.13745 1.93049,-4.71636 -0.52907,-8.99415 -1.70684,-2.96814 -2.93326,-6.50457 -10.33444,-14.16134 -4.026,-4.1649 -8.68585,-9.97539 -11.2515,-16.85964 -15.44109,-15.27462 -19.03749,-33.7868 6.68387,-54.98774 -0.0416,-7.67846 -3.57979,-19.30291 -10.77534,-30.77409 -9.06423,-14.45047 -22.95652,-28.33293 -34.90081,-35.21826 -5.71224,-3.29286 -13.96056,-2.30147 -23.4906,-1.5343 16.83113,4.6786 14.90733,5.4978 -5.06141,10.96933 2.16543,13.82652 -6.90044,12.86026 -40.597108,9.24105 -37.135363,-3.98863 -44.318614,-4.76582 -27.74077,-21.18033 1.083373,-2.77086 3.953135,-7.67053 8.253452,-15.00788 7.256549,-12.38193 10.4033,-17.77949 13.473584,-18.58791 2.387435,-0.62833 4.720692,1.52231 8.853066,5.36122 0.09096,0.0851 0.173046,0.14636 0.264526,0.22927 7.553615,-6.40242 12.47389,-9.60703 16.20711,-9.48794 3.73344,0.11922 6.26831,3.57335 9.08232,10.52843 22.2333,-5.22702 26.41737,-6.19147 16.26001,3.6682 1.62664,-0.36981 3.55922,-0.63073 6.06664,-0.75833 9.91261,-0.50693 20.32002,0.84509 30.05103,6.45463 13.23412,7.6289 25.7368,19.35882 35.85314,32.74926 -0.34532,-5.25821 0.0352,-10.94572 1.5872,-17.03597 5.60423,-21.99306 17.2809,-37.16679 20.80999,-47.31626 1.76424,-5.07492 2.01026,-8.09922 0.5467,-12.09801 -1.19613,-3.26797 -2.36585,-9.30955 -7.91838,-15.48404 2.65793,18.56088 1.38924,17.48107 -11.88639,0.9876 -11.81544,7.50027 -14.55098,-1.19928 -24.67217,-33.54288 -8.36592,-26.73356 -11.64585,-37.31773 -3.63293,-37.28162 z m 21.21561,7.84782 c -4.34457,0.0192 -1.46253,2.10136 7.75966,8.76489 13.41405,9.6928 13.42736,9.68895 16.15419,1.93992 2.72683,-7.74907 2.70233,-7.73841 -13.43831,-9.68194 -5.04411,-0.60728 -8.50103,-1.02287 -10.47554,-1.02287 z m 23.0497,25.81849 c -1.11721,0.0532 -2.08722,1.38839 -3.7211,3.59766 -4.02176,5.4379 -4.01674,5.41607 8.07709,10.79298 7.55876,3.36048 10.39569,4.61914 9.48795,2.45135 -0.54453,-1.3007 -2.43997,-3.80968 -5.46703,-7.86547 -4.7928,-6.42156 -6.74411,-9.05309 -8.37691,-8.97652 z m -13.985,14.58462 c -0.95238,-0.0113 -2.26908,0.69192 -4.25018,1.74593 -5.93143,3.15611 -5.9233,3.16697 1.93991,12.94453 7.86367,9.7776 7.85774,9.77696 5.92557,-3.15678 -0.78485,-5.25443 -1.24785,-8.39378 -1.92228,-10.03464 -0.43107,-1.04916 -0.95221,-1.49903 -1.69302,-1.49903 z m 149.56737,24.35475 c -1.86982,0.16776 -2.56086,2.20055 -3.8622,6.03139 -2.77571,8.17257 -2.78951,8.19169 14.58462,8.88831 17.37378,0.69679 17.38423,0.68629 2.78641,-8.18291 -7.29908,-4.43468 -10.94923,-6.6496 -13.12086,-6.73679 -0.13573,-0.006 -0.26333,-0.0113 -0.38797,0 z m -13.38542,20.33382 c -1.94669,0.0536 -5.24956,0.94909 -10.81061,2.45135 -5.13277,1.38641 -8.33494,2.22391 -9.62902,2.94514 -0.4833,0.26925 -0.70332,0.52743 -0.65252,0.77597 0.79972,0.45824 1.54996,0.87621 2.25735,1.25213 1.6762,0.55479 4.28299,1.2202 7.8302,2.11626 13.48226,3.40596 13.47895,3.41782 13.68522,-3.68584 0.12228,-4.21742 0.16505,-5.93154 -2.68062,-5.85501 z m 3.15677,21.2685 c -0.42444,-0.0185 -0.90642,0.14085 -1.49903,0.47618 -1.62195,0.91818 -4.0364,3.18666 -8.09471,7.01897 -9.99022,9.4329 -10.00357,9.44806 2.83932,6.47224 12.84293,-2.9758 12.8521,-2.97799 9.99936,-9.43503 -1.27026,-2.87547 -1.97275,-4.47704 -3.24494,-4.53236 z m -266.685267,4.60289 c -2.191835,-0.13228 -4.103531,3.15517 -9.241044,11.92166 -8.220212,14.02608 -8.224925,14.04313 6.013733,5.60813 14.238211,-8.435 14.236565,-8.44691 8.218181,-14.03793 -2.256677,-2.09673 -3.67596,-3.41103 -4.99087,-3.49185 z m 39.486067,4.33838 c -1.41,-0.0192 -4.49111,0.6937 -9.41741,1.85173 -13.137007,3.0885 -13.135282,3.08418 -9.75246,8.94124 3.38241,5.85721 3.38436,5.85909 13.1385,-3.08624 6.09628,-5.59119 8.38117,-7.67514 6.03137,-7.70674 z m -11.12804,23.63166 c -2.59242,-0.0528 -2.46544,1.59597 -2.15155,5.57286 0.52839,6.69779 0.54219,6.6793 12.64471,3.36838 12.10275,-3.31074 12.08444,-3.29677 -0.54671,-6.68387 -5.1313,-1.37593 -8.17308,-2.22123 -9.94645,-2.25737 z m 298.88783,54.21179 c -1.54138,-0.002 -4.32211,1.15297 -9.59375,3.33312 -11.24665,4.65096 -11.25469,4.65246 0.51143,5.99611 11.76617,1.34362 11.7712,1.35669 11.25149,-4.63818 -0.27601,-3.18487 -0.42216,-4.69106 -2.16917,-4.69106 z m -179.49496,92.23408 c 1.24816,4.57205 2.46877,9.13556 4.23255,13.87924 3.14444,8.45689 0.36626,10.74739 -3.84455,12.94446 5.11149,-1.70652 8.17214,-4.58559 9.52321,-6.34876 2.05064,-2.67644 1.65719,-4.02249 -0.44089,-7.67151 -1.45566,-2.53183 -2.50494,-5.56693 -8.81778,-12.09801 -0.21734,-0.22471 -0.4312,-0.4698 -0.65254,-0.70542 z m 72.87023,20.05169 c -2.00322,-0.0123 -5.61105,1.96226 -12.8387,5.90786 -14.45538,7.8911 -14.45563,7.89119 1.56956,7.98899 16.02524,0.0984 16.01388,0.0889 14.44355,-7.90077 -0.7846,-3.99501 -1.17134,-5.97465 -3.17441,-5.99608 z m -111.12178,10.10511 c -0.0775,0 -0.16181,0.035 -0.24691,0.035 -1.19285,0.0979 -3.16847,1.1012 -6.89552,2.98046 -7.95146,4.00854 -7.94249,4.00804 1.37559,4.19726 9.31852,0.18841 9.30282,0.17688 7.93599,-4.02091 -0.68081,-2.09084 -1.01481,-3.14225 -2.16915,-3.17444 l 0,-0.0177 z m 25.6774,1.65782 c -0.32788,0.0618 -0.65932,0.11677 -0.9876,0.17635 -1.05553,0.32854 -2.62099,1.11475 -5.09669,2.36316 -6.78243,3.42146 -6.7843,3.41841 1.16397,3.58005 7.94806,0.16075 7.95555,0.15947 6.78968,-3.42131 -0.58279,-1.79035 -0.87573,-2.67683 -1.86936,-2.69824 z"
       id="path3289"
       inkscape:connector-curvature="0" />
  </g>
</svg>
