<?xml version="1.0" encoding="UTF-8" standalone="no"?>
<!-- Created with Inkscape (http://www.inkscape.org/) -->

<svg
   xmlns:dc="http://purl.org/dc/elements/1.1/"
   xmlns:cc="http://creativecommons.org/ns#"
   xmlns:rdf="http://www.w3.org/1999/02/22-rdf-syntax-ns#"
   xmlns:svg="http://www.w3.org/2000/svg"
   xmlns="http://www.w3.org/2000/svg"
   xmlns:sodipodi="http://sodipodi.sourceforge.net/DTD/sodipodi-0.dtd"
   xmlns:inkscape="http://www.inkscape.org/namespaces/inkscape"
   width="1024"
   height="500"
   id="svg2"
   inkscape:label="Pozadí"
   version="1.1"
   inkscape:version="0.48.4 r9939"
   sodipodi:docname="play_promo2.svg"
   inkscape:export-filename="/home/tassadar/data/soc/soc_multirom/poster/renders/play_promo3.png"
   inkscape:export-xdpi="90"
   inkscape:export-ydpi="90">
  <defs
     id="defs3" />
  <sodipodi:namedview
     id="base"
     pagecolor="#ffffff"
     bordercolor="#666666"
     borderopacity="1.0"
     inkscape:pageopacity="0.0"
     inkscape:pageshadow="2"
     inkscape:zoom="0.98994949"
     inkscape:cx="524.60278"
     inkscape:cy="292.0989"
     inkscape:document-units="px"
     inkscape:current-layer="layer1"
     showgrid="false"
     showguides="false"
     inkscape:guide-bbox="true"
     inkscape:snap-global="true"
     inkscape:snap-bbox="true"
     inkscape:window-width="1920"
     inkscape:window-height="1032"
     inkscape:window-x="-4"
     inkscape:window-y="-3"
     inkscape:window-maximized="1"
     inkscape:snap-page="true">
    <sodipodi:guide
       orientation="0,1"
       position="517.1981,450"
       id="guide4196" />
    <sodipodi:guide
       orientation="0,1"
       position="494.97475,50"
       id="guide4198" />
    <sodipodi:guide
       orientation="1,0"
       position="50,303.04576"
       id="guide4200" />
    <sodipodi:guide
       orientation="1,0"
       position="974,387.89858"
       id="guide4202" />
    <sodipodi:guide
       orientation="1,0"
       position="498.0052,531.34024"
       id="guide4230" />
  </sodipodi:namedview>
  <metadata
     id="metadata6">
    <rdf:RDF>
      <cc:Work
         rdf:about="">
        <dc:format>image/svg+xml</dc:format>
        <dc:type
           rdf:resource="http://purl.org/dc/dcmitype/StillImage" />
        <dc:title></dc:title>
      </cc:Work>
    </rdf:RDF>
  </metadata>
  <g
     inkscape:label="Vrstva 1"
     inkscape:groupmode="layer"
     id="layer1"
     transform="translate(0,-552.36217)">
    <rect
       style="fill:#ffffff;fill-opacity:1;fill-rule:nonzero;stroke:none"
       id="rect4255"
       width="1024"
       height="500"
       x="0"
       y="0"
       transform="translate(0,552.36217)" />
    <g
       id="g4135"
       transform="matrix(0.6258729,0,0,0.6258729,1185.8546,-929.86552)">
      <path
         inkscape:export-ydpi="200"
         inkscape:export-xdpi="200"
         inkscape:export-filename="/home/tassadar/data/soc/soc_multirom/img/dragon.png"
         id="path5637"
         d="m -57.608868,482.51615 c -5.489179,0.31745 -6.996364,4.50755 -5.59375,13.5 -1.163035,2.01923 -2.545532,4.56915 -4.25,7.75 -8.835084,16.48788 -8.842592,16.49185 7.34375,7.34375 0.15192,-0.0859 0.25718,-0.13449 0.40625,-0.21875 1.08738,3.8611 2.3818,8.14103 3.84375,12.875 2.82556,-0.0172 6.21228,0.044 10.3125,0.0937 26.927232,0.32657 26.955492,0.30975 34.312502,14.96875 7.3570096,14.659 7.3467396,14.67307 -26.937502,-0.3125 -6.15731,-2.69135 -11.16798,-4.87795 -15.15625,-6.6875 0.88328,2.80513 1.67798,5.38479 2.65625,8.46875 15.90945,50.15371 20.22825,63.60892 38.156252,52.125 10.6417796,13.30446 16.3147596,20.17109 18.6874996,19.625 0.0387,0.71112 0.085,1.42298 0.0937,2.125 0.12069,9.74191 -4.10758,20.27197 -7.00000005,34.78125 -2.89241995,14.50928 -0.73646995,35.86941 14.93750045,51.4375 15.67397,15.56809 40.49526,27.60612 83.59375,41.5 L 109.42238,705.8599 C 68.722124,692.73915 48.301354,680.9386 40.859884,673.5474 c -7.44147,-7.3912 -6.2747,-8.12829 -4.46875,-17.1875 1.80595,-9.05921 7.95539,-23.55595 7.71875,-42.65625 -0.15363,-12.39991 -3.8145,-26.10806 -12.25,-40.1875 27.77657,12.37846 25.68721,9.21005 2.375,-22.1875 15.92758,-16.50908 12.98288,-22.98661 -14.3125,-36.6875 0.0553,-0.16304 0.1,-0.30277 0.15625,-0.46875 6.37215,-18.80261 6.38531,-18.81701 -32.375,-23.75 -12.920332,-1.64436 -21.519862,-2.71083 -26.062502,-2.5625 -8.10661,-3.31354 -14.05227,-5.2182 -18.125,-5.34375 -0.39442,-0.0122 -0.76503,-0.0208 -1.125,0 z m -1.40625,3.53125 c 0.74901,-0.065 2.42127,0.26288 5.09375,0.8125 7.12661,1.46566 7.12775,1.47413 5.59375,5.3125 -1.14422,2.86306 -1.44937,3.57972 -3.84375,1.5625 -0.0131,-0.0111 -0.018,-0.02 -0.0312,-0.0312 -1.07317,-1.06217 -2.04262,-1.97042 -2.84375,-2.59375 -0.14918,-0.14137 -0.24831,-0.25646 -0.40625,-0.40625 -3.49538,-3.31502 -4.81086,-4.5479 -3.5625,-4.65625 z m 1.09375,8.375 c 0.95288,0.0865 2.01236,1.14002 3.71875,2.84375 4.45751,4.45055 4.47101,4.45295 -5.34375,10 -9.81476,5.54705 -9.825996,5.5601 -4.46875,-4.4375 3.013451,-5.62365 4.31736,-8.0907 5.6875,-8.375 0.13321,-0.0276 0.27012,-0.0436 0.40625,-0.0312 z m 33.71875,0.40625 c 3.018202,0.003 8.313142,0.67397 16.0312516,1.65625 24.6979404,3.14328 24.6853104,3.14404 20.6250004,15.125 -4.0603104,11.98096 -4.0498704,11.99924 -24.6875,-3.125 -14.188372,-10.39792 -18.608792,-13.66224 -11.968752,-13.65625 z m 31.7500016,5.40625 c -0.15053,-10e-4 -0.28568,0.0142 -0.4375,0.0312 -0.91091,0.10242 -1.8073,0.48589 -2.5625,1.125 -2.01386,1.70429 -2.26679,4.73614 -0.5625,6.75 1.70429,2.01386 4.70489,2.23554 6.7187504,0.53125 2.01386,-1.70429 2.26679,-4.70489 0.5625,-6.71875 -0.85214,-1.00693 -2.0316904,-1.58606 -3.2500004,-1.6875 -0.15229,-0.0127 -0.31822,-0.0301 -0.46875,-0.0312 z m -113.0312536,23.5 -10.625,8.75 c -0.13524,-0.51234 -0.35366,-0.96454 -0.71875,-1.40625 -1.26826,-1.53444 -3.44243,-1.80906 -4.875,-0.625 -1.43257,1.18407 -1.54951,3.37182 -0.28125,4.90625 1.19419,1.4448 3.16699,1.76664 4.59375,0.8125 l 0.21875,-0.1875 8.40625,-6.9375 4.53125,5.46875 -6.09375,5.03125 c -0.13526,-0.51234 -0.32241,-1.02704 -0.6875,-1.46875 -1.26826,-1.53442 -3.47368,-1.80907 -4.90625,-0.625 -1.43257,1.18406 -1.61201,3.34058 -0.34375,4.875 1.19419,1.4448 3.26074,1.79789 4.6875,0.84375 l 0.21875,-0.21875 13.000002,-10.6875 -1.3125,-1.53125 -4.500002,-5.46875 -1.1875,-1.375 -0.125,-0.15625 z m 29.375002,2.4375 c -0.19879,-0.004 -0.360764,0.0533 -0.5625,0.0937 -1.613883,0.32238 -2.657796,1.95886 -2.3125,3.6875 0.325126,1.62766 1.768354,2.73925 3.28125,2.59375 l 0.28125,-0.0625 9.4375,-1.90625 1.1875,6.15625 -6.78125,1.34375 c 0.109479,-0.4563 0.0994,-0.90862 0,-1.40625 -0.345297,-1.72864 -1.948616,-2.85365 -3.5625,-2.53125 -1.613884,0.32237 -2.595293,1.99011 -2.25,3.71875 0.325127,1.62766 1.705854,2.67678 3.21875,2.53125 l 0,0.0625 0.28125,-0.0625 14.625,-2.9375 -0.0625,-0.28125 -1.5625,-7.5625 -0.28125,-1.59375 c -0.108023,-0.0583 -0.209368,-0.0995 -0.3125,-0.15625 l -11.6875,2.375 c 0.109479,-0.45629 0.161901,-0.97116 0.0625,-1.46875 -0.302134,-1.51259 -1.608459,-2.56764 -3,-2.59375 z m -29.937502,0.65625 4.53125,5.4375 -0.90625,0.6875 -4.46875,-5.4375 0.84375,-0.6875 z m 43.125002,3.1875 1.1875,6.09375 -0.96875,0.21875 -1.25,-6.09375 1.03125,-0.21875 z m 74.312502,5.03125 c 2.49469,-0.1082 5.49152,3.95134 12.90625,13.9375 12.48797,16.81879 12.49736,16.80324 -6.0625,8.375 -18.55986045,-8.42824 -18.57190045,-8.42195 -12.5000004,-16.8125 2.46671,-3.40866 3.94936,-5.42597 5.6562504,-5.5 z m -93.875002,9.375 -6.09375,10.625 c -0.270958,-0.38311 -0.59153,-0.71547 -1.03125,-0.96875 -1.527501,-0.87984 -3.459807,-0.45738 -4.28125,0.96875 -0.821445,1.42608 -0.246251,3.33892 1.28125,4.21875 1.438284,0.82848 3.237129,0.45233 4.125,-0.78125 l 0.125,-0.21875 4.8125,-8.375 5.40625,3.15625 -3.4375,6 c -0.270958,-0.3831 -0.622779,-0.71548 -1.0625,-0.96875 -1.5275,-0.87984 -3.428559,-0.45736 -4.25,0.96875 -0.821444,1.4261 -0.277501,3.30767 1.25,4.1875 1.438286,0.82847 3.17463,0.48361 4.0625,-0.75 l 0.0625,0.0625 0.15625,-0.28125 7.40625,-12.875 -0.28125,-0.125 -6.71875,-3.9375 -0.125,-0.0625 -1.1875,-0.6875 -0.21875,-0.15625 z m 0.5,2.75 5.4375,3.125 -0.5625,0.90625 -5.375,-3.125 0.5,-0.90625 z m 71.906252,10.34375 c 3.1420896,-0.22657 3.8151796,4.05911 5.9687496,17.84375 3.13246995,20.05038 3.12343995,20.05424 -9.0312496,4.84375 -12.154692,-15.21049 -12.147222,-15.19136 -3.125,-20.03125 2.81944,-1.51247 4.75928,-2.55326 6.1875,-2.65625 z"
         style="font-size:medium;font-style:normal;font-variant:normal;font-weight:normal;font-stretch:normal;text-indent:0;text-align:start;text-decoration:none;line-height:normal;letter-spacing:normal;word-spacing:normal;text-transform:none;direction:ltr;block-progression:tb;writing-mode:lr-tb;text-anchor:start;baseline-shift:baseline;color:#000000;fill:#333333;fill-opacity:1;stroke:none;stroke-width:37.85416794;marker:none;visibility:visible;display:inline;overflow:visible;enable-background:accumulate;font-family:Sans;-inkscape-font-specification:Sans"
         inkscape:connector-curvature="0" />
      <path
         inkscape:export-ydpi="200"
         inkscape:export-xdpi="200"
         inkscape:export-filename="/home/tassadar/data/soc/soc_multirom/img/dragon.png"
         sodipodi:nodetypes="ccssaassssccssssssssc"
         inkscape:connector-curvature="0"
         id="path5865-8"
         d="m 331.40655,955.72071 -32.07465,20.0931 c 16.94012,27.04409 34.68486,43.39619 53.41834,51.59329 18.73343,8.197 37.13743,7.2897 51.74525,4.4614 14.60787,-2.8284 23.68173,-6.0623 35.0383,-3.141 4.97265,1.2791 10.44588,4.0313 12.77418,8.6076 5.39974,10.6133 9.03974,24.7303 -1.30591,35.6998 -10.34562,10.9695 -27.77535,18.3196 -48.87246,8.8786 -32.35272,-14.4778 -57.57809,-23.1932 -79.29097,-22.686 -21.71282,0.5073 -34.04555,17.6733 -47.703,24.7965 -27.31503,14.2464 -43.67636,17.5552 -82.11646,8.3604 l -4.47831,17.0682 c 50.11,11.9863 74.81854,7.0119 97.6266,-4.8838 11.40401,-5.948 25.62512,-18.5786 40.14743,-18.9179 14.52238,-0.3392 31.98288,11.6757 60.89276,24.6129 35.02106,15.6719 71.7221,10.1995 93.4863,-12.8772 21.7642,-23.0768 25.34931,-62.9091 -1.03087,-93.706 -12.4113,-14.48929 -31.36738,-18.79789 -45.59397,-17.20339 -14.22662,1.5945 -25.98213,6.144 -36.75575,8.2299 -10.77362,2.086 -19.51042,2.3448 -29.38771,-1.9772 -9.87723,-4.3219 -22.21255,-14.1695 -36.5191,-37.0092 z"
         style="font-size:medium;font-style:normal;font-variant:normal;font-weight:normal;font-stretch:normal;text-indent:0;text-align:start;text-decoration:none;line-height:normal;letter-spacing:normal;word-spacing:normal;text-transform:none;direction:ltr;block-progression:tb;writing-mode:lr-tb;text-anchor:start;baseline-shift:baseline;color:#000000;fill:#333333;fill-opacity:1;stroke:none;stroke-width:70;marker:none;visibility:visible;display:inline;overflow:visible;enable-background:accumulate;font-family:Sans;-inkscape-font-specification:Sans" />
      <path
         inkscape:export-ydpi="200"
         inkscape:export-xdpi="200"
         inkscape:export-filename="/home/tassadar/data/soc/soc_multirom/img/dragon.png"
         inkscape:connector-curvature="0"
         id="path5631"
         d="m 56.766134,744.95365 c -12.48392,0.18373 -24.85558,2.93977 -36.625,6.90625 -37.66214,12.69274 -70.948072,37.91682 -88.093752,55.0625 -37.416182,37.41617 -34.438942,91.03167 -8.53125,125.43751 25.90769,34.4058 77.6887916,50.836 125.281252,21 l -20.125,-32.09376 c -33.0933204,20.74636 -58.876952,9.59966 -74.906252,-11.6875 -16.029296,-21.28716 -19.351288,-51.49246 5.0625,-75.90625 12.16648,-12.16647 44.5025416,-36.19649 73.406252,-45.9375 14.45185,-4.8705 27.61928,-6.1041 37,-3.53125 9.38072,2.57285 16.6097,7.60947 23.125,22.96875 l 34.843746,-14.78125 c -10.02962,-23.64398 -27.983696,-39.21477 -47.937496,-44.6875 -7.48268,-2.05227 -15.00965,-2.86024 -22.5,-2.75 z"
         style="font-size:medium;font-style:normal;font-variant:normal;font-weight:normal;font-stretch:normal;text-indent:0;text-align:start;text-decoration:none;line-height:normal;letter-spacing:normal;word-spacing:normal;text-transform:none;direction:ltr;block-progression:tb;writing-mode:lr-tb;text-anchor:start;baseline-shift:baseline;color:#000000;fill:#333333;fill-opacity:1;stroke:none;stroke-width:37.85416794;marker:none;visibility:visible;display:inline;overflow:visible;enable-background:accumulate;font-family:Sans;-inkscape-font-specification:Sans" />
      <path
         inkscape:export-ydpi="200"
         inkscape:export-xdpi="200"
         inkscape:export-filename="/home/tassadar/data/soc/soc_multirom/img/dragon.png"
         sodipodi:nodetypes="cccssssssssssccccssssssaasscc"
         inkscape:connector-curvature="0"
         id="path5121"
         d="m 388.79738,764.51615 -28.0625,25.40625 12.71875,14.03125 c 10.43254,11.50673 24.18721,17.32039 36.625,19.0625 12.43779,1.74211 23.79924,0.2956 33.6875,-1 9.88826,-1.2956 42.16053,-14.52295 47.70733,-14.21558 5.5468,0.30737 6.9371,0.95389 8.96875,3.1875 3.86636,4.25071 6.40152,11.44474 6.75,21.15625 0.34848,9.71151 -1.62742,21.18901 -4.59375,30.75 -6.69916,21.59261 -46.44487,56.35958 -61.70733,60.93433 -3.60732,1.08125 -6.84319,0.30494 -14.875,-5.65625 -8.03181,-5.96119 -17.88386,-16.35669 -29.03125,-26.5 -11.14739,-10.14331 -23.95137,-20.8549 -41.71875,-24.3125 -17.76738,-3.4576 -38.21962,3.65395 -55,20.40625 l -13.375,13.375 26.71875,26.78125 13.40625,-13.375 c 11.06784,-11.04932 15.59301,-11.08347 21,-10.03125 5.40699,1.05222 13.97887,6.49273 23.5,15.15625 9.52113,8.66352 19.63863,19.74681 31.9375,28.87501 12.29887,9.1282 29.75897,17.0924 48.3125,11.5312 35.5163,-10.6456 77.97966,-56.92817 86.98858,-85.96554 4.00133,-12.89698 6.83595,-27.85416 6.28125,-43.3125 -0.5547,-15.45834 -5.61805,-33.53604 -16.59375,-45.28125 -8.68867,-9.29784 -22.19006,-14.51378 -34.875,-15.53125 -18.81481,-1.50915 -45.43839,13.27828 -54.73858,14.49683 -9.30019,1.21855 -17.50022,1.90287 -23.5,1.0625 -5.99978,-0.84037 -9.56129,-2.30784 -13.84375,-7.03125 z"
         style="font-size:medium;font-style:normal;font-variant:normal;font-weight:normal;font-stretch:normal;text-indent:0;text-align:start;text-decoration:none;line-height:normal;letter-spacing:normal;word-spacing:normal;text-transform:none;direction:ltr;block-progression:tb;writing-mode:lr-tb;text-anchor:start;baseline-shift:baseline;color:#000000;fill:#f72f2f;fill-opacity:1;stroke:none;stroke-width:37.85416794;marker:none;visibility:visible;display:inline;overflow:visible;enable-background:accumulate;font-family:Sans;-inkscape-font-specification:Sans" />
      <rect
         inkscape:export-ydpi="200"
         inkscape:export-xdpi="200"
         inkscape:export-filename="/home/tassadar/data/soc/soc_multirom/img/dragon.png"
         y="577.86493"
         x="95.598648"
         height="411.52887"
         width="231.99197"
         id="rect5633"
         style="fill:#ffffff;stroke:none" />
      <path
         inkscape:export-ydpi="200"
         inkscape:export-xdpi="200"
         inkscape:export-filename="/home/tassadar/data/soc/soc_multirom/img/dragon.png"
         inkscape:connector-curvature="0"
         id="rect4122-6"
         d="m 210.45221,538.07363 c -35.6807,0 -69.9968,1.37626 -106.26206,7.41719 -10.436016,1.7384 -18.704936,7.48814 -18.704936,16.55656 l 0,73.84804 -2.54066,0 0,80.191 2.54066,0 0,303.15038 c 0,9.0684 7.50215,14.7327 17.920586,16.5736 35.29096,6.2358 70.78594,7.9798 106.46664,7.9798 35.68074,0 70.3914,-1.3591 105.68235,-6.0361 10.48815,-1.3899 22.21747,-9.4489 22.21747,-18.5173 l 0,-383.86997 2.47243,0 0,-32.73799 -2.47243,0 0,-40.58146 c 0,-9.06842 -9.48987,-15.55884 -19.8815,-17.54552 -35.67538,-6.8204 -70.26452,-6.42823 -107.43855,-6.42823 z m 0.80141,19.43818 c 3.33626,0 6.03607,2.69975 6.03607,6.03606 0,3.33633 -2.69981,6.03606 -6.03607,6.03606 -3.3363,0 -6.05315,-2.69973 -6.05315,-6.03606 0,-3.33631 2.71685,-6.03606 6.05315,-6.03606 z m -84.5561,3.01803 c 1.78835,0 3.23968,1.45132 3.23968,3.23971 0,1.78836 -1.45133,3.23968 -3.23968,3.23968 -1.78839,0 -3.23972,-1.45132 -3.23972,-3.23968 0,-1.78839 1.45133,-3.23971 3.23972,-3.23971 z m -30.623686,18.99485 230.444766,0 0,409.51472 -230.444766,0 0,-409.51472 z"
         style="fill:#808080;fill-opacity:1;fill-rule:nonzero;stroke:none" />
      <path
         inkscape:export-ydpi="200"
         inkscape:export-xdpi="200"
         inkscape:export-filename="/home/tassadar/data/soc/soc_multirom/img/dragon.png"
         id="path5335-88-9-3-0"
         d="m 57.703634,866.51615 c -6.05557,-0.087 -7.13712,4.93146 -9.4375,15.59375 -0.0409,0.18959 -0.0849,0.34523 -0.125,0.53125 -31.48994,-2.3342 -37.52674,1.82422 -32.15625,24.9375 -41.755642,17.30462 -41.633112,17.34008 2.46875,22.34375 1.503,0.17053 2.56608,0.27921 3.96875,0.43751 0.4792,1.5645 0.9273,2.9965 1.4375,4.6562 1.53048,4.9789 2.87519,9.3834 4.1875,13.5 -0.21204,0.2547 -0.3471,0.4288 -0.5625,0.6875 -26.62062045,31.9785 -27.08008045,32.7948 8.15625,19.6563 9.8121,19.717 20.77592,10.0623 61.53125,-26 8.346106,-7.3851 15.430386,-13.66554 21.218746,-19.03126 8.7142,15.30456 8.79851,14.89596 9.6875,-3.875 0.1043,-2.20225 0.18355,-4.08747 0.25,-5.8125 14.81211,-15.64513 11.05409,-20.52276 -14.21875,-24.375 -3.9516,-2.54408 -12.15805,-6.12808 -24.499996,-11.53125 -17.35187,-7.59646 -26.5631,-11.64199 -31.90625,-11.71875 z"
         style="fill:#333333;fill-opacity:1;fill-rule:nonzero;stroke:none"
         inkscape:connector-curvature="0" />
      <path
         inkscape:export-ydpi="200"
         inkscape:export-xdpi="200"
         inkscape:export-filename="/home/tassadar/data/soc/soc_multirom/img/dragon.png"
         inkscape:transform-center-y="-1.4597813"
         inkscape:transform-center-x="4.6486005"
         d="m 148.80222,149.78665 c 1.9866,83.90934 1.9866,83.90934 -71.674323,43.67511 C 3.4669705,153.22754 3.4669705,153.22754 75.141298,109.55242 146.81563,65.877298 146.81563,65.877298 148.80222,149.78665 z"
         inkscape:randomized="0"
         inkscape:rounded="1"
         inkscape:flatsided="true"
         sodipodi:arg2="1.0235263"
         sodipodi:arg1="-0.023671113"
         sodipodi:r2="36.65937"
         sodipodi:r1="48.45866"
         sodipodi:cy="150.93361"
         sodipodi:cx="100.35714"
         sodipodi:sides="3"
         id="path5335-8-819-2-0-3-05-85-9"
         style="fill:#ffffff;fill-opacity:1;fill-rule:nonzero;stroke:none"
         sodipodi:type="star"
         transform="matrix(-0.15610366,-0.08738372,-0.23482298,0.10091451,84.443084,908.64216)" />
      <path
         inkscape:export-ydpi="200"
         inkscape:export-xdpi="200"
         inkscape:export-filename="/home/tassadar/data/soc/soc_multirom/img/dragon.png"
         inkscape:transform-center-y="7.4721891"
         inkscape:transform-center-x="5.1653419"
         d="m 148.80222,149.78665 c 1.9866,83.90934 1.9866,83.90934 -71.674323,43.67511 C 3.4669705,153.22754 3.4669705,153.22754 75.141298,109.55242 146.81563,65.877298 146.81563,65.877298 148.80222,149.78665 z"
         inkscape:randomized="0"
         inkscape:rounded="1"
         inkscape:flatsided="true"
         sodipodi:arg2="1.0235263"
         sodipodi:arg1="-0.023671113"
         sodipodi:r2="36.65937"
         sodipodi:r1="48.45866"
         sodipodi:cy="150.93361"
         sodipodi:cx="100.35714"
         sodipodi:sides="3"
         id="path5335-8-819-2-0-3-0-7-01-8"
         style="fill:#ffffff;fill-opacity:1;fill-rule:nonzero;stroke:none"
         sodipodi:type="star"
         transform="matrix(-0.17089685,-0.00949772,-0.15597886,0.19245776,86.032194,921.85459)" />
      <path
         inkscape:export-ydpi="200"
         inkscape:export-xdpi="200"
         inkscape:export-filename="/home/tassadar/data/soc/soc_multirom/img/dragon.png"
         id="path5335-8-819-2-0-3-9-1-8-9-1"
         d="m 74.047384,877.6724 c -0.71401,1.7101 -4.42407,3.7663 -11.9375,7.96875 -2.75242,1.5395 -4.9953,2.78426 -6.78125,3.71875 -0.92946,7.21797 2.79192,6.88432 24.625,4.84375 26.346456,-2.4624 26.368556,-2.45498 2.78125,-12.78125 -3.35895,-1.47051 -6.20913,-2.70542 -8.6875,-3.75 z"
         style="fill:#ffffff;fill-opacity:1;fill-rule:nonzero;stroke:none"
         inkscape:connector-curvature="0" />
      <path
         inkscape:export-ydpi="200"
         inkscape:export-xdpi="200"
         inkscape:export-filename="/home/tassadar/data/soc/soc_multirom/img/dragon.png"
         inkscape:transform-center-y="-0.091295034"
         inkscape:transform-center-x="-1.5897873"
         d="m 148.80222,149.78665 c 1.9866,83.90934 1.9866,83.90934 -71.674323,43.67511 C 3.4669705,153.22754 3.4669705,153.22754 75.141298,109.55242 146.81563,65.877298 146.81563,65.877298 148.80222,149.78665 z"
         inkscape:randomized="0"
         inkscape:rounded="1"
         inkscape:flatsided="true"
         sodipodi:arg2="1.0235263"
         sodipodi:arg1="-0.023671113"
         sodipodi:r2="36.65937"
         sodipodi:r1="48.45866"
         sodipodi:cy="150.93361"
         sodipodi:cx="100.35714"
         sodipodi:sides="3"
         id="path5335-8-1-9-6-5-7-9"
         style="fill:#ffffff;fill-opacity:1;fill-rule:nonzero;stroke:none"
         sodipodi:type="star"
         transform="matrix(0.04638282,0.04561791,0.09161891,-0.02178218,103.75542,898.47903)" />
      <path
         inkscape:export-ydpi="200"
         inkscape:export-xdpi="200"
         inkscape:export-filename="/home/tassadar/data/soc/soc_multirom/img/dragon.png"
         inkscape:transform-center-y="2.2145748"
         inkscape:transform-center-x="1.1914106"
         d="m 148.80222,149.78665 c 1.9866,83.90934 1.9866,83.90934 -71.674323,43.67511 C 3.4669705,153.22754 3.4669705,153.22754 75.141298,109.55242 146.81563,65.877298 146.81563,65.877298 148.80222,149.78665 z"
         inkscape:randomized="0"
         inkscape:rounded="1"
         inkscape:flatsided="true"
         sodipodi:arg2="1.0235263"
         sodipodi:arg1="-0.023671113"
         sodipodi:r2="36.65937"
         sodipodi:r1="48.45866"
         sodipodi:cy="150.93361"
         sodipodi:cx="100.35714"
         sodipodi:sides="3"
         id="path5335-8-1-2-4-5-4-3"
         style="fill:#ffffff;fill-opacity:1;fill-rule:nonzero;stroke:none"
         sodipodi:type="star"
         transform="matrix(-0.04564676,0.09431757,0.06977777,0.1185497,115.56759,887.09193)" />
      <path
         inkscape:export-ydpi="200"
         inkscape:export-xdpi="200"
         inkscape:export-filename="/home/tassadar/data/soc/soc_multirom/img/dragon.png"
         inkscape:transform-center-y="-0.90040246"
         inkscape:transform-center-x="-0.22285381"
         d="m 148.80222,149.78665 c 1.9866,83.90934 1.9866,83.90934 -71.674323,43.67511 C 3.4669705,153.22754 3.4669705,153.22754 75.141298,109.55242 146.81563,65.877298 146.81563,65.877298 148.80222,149.78665 z"
         inkscape:randomized="0"
         inkscape:rounded="1"
         inkscape:flatsided="true"
         sodipodi:arg2="1.0235263"
         sodipodi:arg1="-0.023671113"
         sodipodi:r2="36.65937"
         sodipodi:r1="48.45866"
         sodipodi:cy="150.93361"
         sodipodi:cx="100.35714"
         sodipodi:sides="3"
         id="path5335-8-1-2-7-81-0-5-9"
         style="fill:#ffffff;fill-opacity:1;fill-rule:nonzero;stroke:none"
         sodipodi:type="star"
         transform="matrix(-0.04500977,-0.02551616,-0.01331515,-0.06973245,116.92596,935.94601)" />
      <path
         inkscape:export-ydpi="200"
         inkscape:export-xdpi="200"
         inkscape:export-filename="/home/tassadar/data/soc/soc_multirom/img/dragon.png"
         inkscape:transform-center-y="-0.79054242"
         inkscape:transform-center-x="-0.19563105"
         d="m 148.80222,149.78665 c 1.9866,83.90934 1.9866,83.90934 -71.674323,43.67511 C 3.4669705,153.22754 3.4669705,153.22754 75.141298,109.55242 146.81563,65.877298 146.81563,65.877298 148.80222,149.78665 z"
         inkscape:randomized="0"
         inkscape:rounded="1"
         inkscape:flatsided="true"
         sodipodi:arg2="1.0235263"
         sodipodi:arg1="-0.023671113"
         sodipodi:r2="36.65937"
         sodipodi:r1="48.45866"
         sodipodi:cy="150.93361"
         sodipodi:cx="100.35714"
         sodipodi:sides="3"
         id="path5335-8-1-2-7-8-1-4-6-8"
         style="fill:#ffffff;fill-opacity:1;fill-rule:nonzero;stroke:none"
         sodipodi:type="star"
         transform="matrix(-0.0395186,-0.0224032,-0.01169072,-0.06122514,109.04138,937.78451)" />
      <path
         inkscape:export-ydpi="200"
         inkscape:export-xdpi="200"
         inkscape:export-filename="/home/tassadar/data/soc/soc_multirom/img/dragon.png"
         inkscape:transform-center-y="-0.757103"
         inkscape:transform-center-x="-0.18736534"
         d="m 148.80222,149.78665 c 1.9866,83.90934 1.9866,83.90934 -71.674323,43.67511 C 3.4669705,153.22754 3.4669705,153.22754 75.141298,109.55242 146.81563,65.877298 146.81563,65.877298 148.80222,149.78665 z"
         inkscape:randomized="0"
         inkscape:rounded="1"
         inkscape:flatsided="true"
         sodipodi:arg2="1.0235263"
         sodipodi:arg1="-0.023671113"
         sodipodi:r2="36.65937"
         sodipodi:r1="48.45866"
         sodipodi:cy="150.93361"
         sodipodi:cx="100.35714"
         sodipodi:sides="3"
         id="path5335-8-1-2-7-86-9-7-1-7"
         style="fill:#ffffff;fill-opacity:1;fill-rule:nonzero;stroke:none"
         sodipodi:type="star"
         transform="matrix(-0.03784679,-0.02145544,-0.01119614,-0.05863504,102.61309,940.31771)" />
      <path
         inkscape:export-ydpi="200"
         inkscape:export-xdpi="200"
         inkscape:export-filename="/home/tassadar/data/soc/soc_multirom/img/dragon.png"
         inkscape:transform-center-y="-0.68668691"
         inkscape:transform-center-x="-0.16995404"
         d="m 148.80222,149.78665 c 1.9866,83.90934 1.9866,83.90934 -71.674323,43.67511 C 3.4669705,153.22754 3.4669705,153.22754 75.141298,109.55242 146.81563,65.877298 146.81563,65.877298 148.80222,149.78665 z"
         inkscape:randomized="0"
         inkscape:rounded="1"
         inkscape:flatsided="true"
         sodipodi:arg2="1.0235263"
         sodipodi:arg1="-0.023671113"
         sodipodi:r2="36.65937"
         sodipodi:r1="48.45866"
         sodipodi:cy="150.93361"
         sodipodi:cx="100.35714"
         sodipodi:sides="3"
         id="path5335-8-1-2-7-6-9-7-5-6"
         style="fill:#ffffff;fill-opacity:1;fill-rule:nonzero;stroke:none"
         sodipodi:type="star"
         transform="matrix(-0.03432678,-0.01945994,-0.01015483,-0.05318156,96.719084,942.18111)" />
      <path
         inkscape:export-ydpi="200"
         inkscape:export-xdpi="200"
         inkscape:export-filename="/home/tassadar/data/soc/soc_multirom/img/dragon.png"
         inkscape:transform-center-y="-0.62814976"
         inkscape:transform-center-x="-0.15543225"
         d="m 148.80222,149.78665 c 1.9866,83.90934 1.9866,83.90934 -71.674323,43.67511 C 3.4669705,153.22754 3.4669705,153.22754 75.141298,109.55242 146.81563,65.877298 146.81563,65.877298 148.80222,149.78665 z"
         inkscape:randomized="0"
         inkscape:rounded="1"
         inkscape:flatsided="true"
         sodipodi:arg2="1.0235263"
         sodipodi:arg1="-0.023671113"
         sodipodi:r2="36.65937"
         sodipodi:r1="48.45866"
         sodipodi:cy="150.93361"
         sodipodi:cx="100.35714"
         sodipodi:sides="3"
         id="path5335-8-1-2-7-3-5-4-4-5"
         style="fill:#ffffff;fill-opacity:1;fill-rule:nonzero;stroke:none"
         sodipodi:type="star"
         transform="matrix(-0.03140051,-0.01780103,-0.00928915,-0.04864798,91.613044,943.67211)" />
      <path
         inkscape:export-ydpi="200"
         inkscape:export-xdpi="200"
         inkscape:export-filename="/home/tassadar/data/soc/soc_multirom/img/dragon.png"
         inkscape:transform-center-y="-0.60747083"
         inkscape:transform-center-x="-0.15032687"
         d="m 148.80222,149.78665 c 1.9866,83.90934 1.9866,83.90934 -71.674323,43.67511 C 3.4669705,153.22754 3.4669705,153.22754 75.141298,109.55242 146.81563,65.877298 146.81563,65.877298 148.80222,149.78665 z"
         inkscape:randomized="0"
         inkscape:rounded="1"
         inkscape:flatsided="true"
         sodipodi:arg2="1.0235263"
         sodipodi:arg1="-0.023671113"
         sodipodi:r2="36.65937"
         sodipodi:r1="48.45866"
         sodipodi:cy="150.93361"
         sodipodi:cx="100.35714"
         sodipodi:sides="3"
         id="path5335-8-1-2-7-3-3-4-3-7-0"
         style="fill:#ffffff;fill-opacity:1;fill-rule:nonzero;stroke:none"
         sodipodi:type="star"
         transform="matrix(-0.03036667,-0.01721495,-0.00898332,-0.04704629,86.917024,945.55461)" />
      <path
         inkscape:export-ydpi="200"
         inkscape:export-xdpi="200"
         inkscape:export-filename="/home/tassadar/data/soc/soc_multirom/img/dragon.png"
         inkscape:transform-center-y="0.60746516"
         inkscape:transform-center-x="0.15031514"
         d="m 148.80222,149.78665 c 1.9866,83.90934 1.9866,83.90934 -71.674323,43.67511 C 3.4669705,153.22754 3.4669705,153.22754 75.141298,109.55242 146.81563,65.877298 146.81563,65.877298 148.80222,149.78665 z"
         inkscape:randomized="0"
         inkscape:rounded="1"
         inkscape:flatsided="true"
         sodipodi:arg2="1.0235263"
         sodipodi:arg1="-0.023671113"
         sodipodi:r2="36.65937"
         sodipodi:r1="48.45866"
         sodipodi:cy="150.93361"
         sodipodi:cx="100.35714"
         sodipodi:sides="3"
         id="path5335-8-1-2-7-33-3-2-0-2"
         style="fill:#ffffff;fill-opacity:1;fill-rule:nonzero;stroke:none"
         sodipodi:type="star"
         transform="matrix(0.03036667,0.01721495,0.00898332,0.04704629,78.215214,921.77742)" />
      <path
         inkscape:export-ydpi="200"
         inkscape:export-xdpi="200"
         inkscape:export-filename="/home/tassadar/data/soc/soc_multirom/img/dragon.png"
         inkscape:transform-center-y="0.62814002"
         inkscape:transform-center-x="0.15541989"
         d="m 148.80222,149.78665 c 1.9866,83.90934 1.9866,83.90934 -71.674323,43.67511 C 3.4669705,153.22754 3.4669705,153.22754 75.141298,109.55242 146.81563,65.877298 146.81563,65.877298 148.80222,149.78665 z"
         inkscape:randomized="0"
         inkscape:rounded="1"
         inkscape:flatsided="true"
         sodipodi:arg2="1.0235263"
         sodipodi:arg1="-0.023671113"
         sodipodi:r2="36.65937"
         sodipodi:r1="48.45866"
         sodipodi:cy="150.93361"
         sodipodi:cx="100.35714"
         sodipodi:sides="3"
         id="path5335-8-1-2-7-8-4-0-7-0-1"
         style="fill:#ffffff;fill-opacity:1;fill-rule:nonzero;stroke:none"
         sodipodi:type="star"
         transform="matrix(0.03140051,0.01780103,0.00928915,0.04864798,81.964884,918.45507)" />
      <path
         inkscape:export-ydpi="200"
         inkscape:export-xdpi="200"
         inkscape:export-filename="/home/tassadar/data/soc/soc_multirom/img/dragon.png"
         inkscape:transform-center-y="0.68667687"
         inkscape:transform-center-x="0.16991011"
         d="m 148.80222,149.78665 c 1.9866,83.90934 1.9866,83.90934 -71.674323,43.67511 C 3.4669705,153.22754 3.4669705,153.22754 75.141298,109.55242 146.81563,65.877298 146.81563,65.877298 148.80222,149.78665 z"
         inkscape:randomized="0"
         inkscape:rounded="1"
         inkscape:flatsided="true"
         sodipodi:arg2="1.0235263"
         sodipodi:arg1="-0.023671113"
         sodipodi:r2="36.65937"
         sodipodi:r1="48.45866"
         sodipodi:cy="150.93361"
         sodipodi:cx="100.35714"
         sodipodi:sides="3"
         id="path5335-8-1-2-7-86-8-5-8-0-8"
         style="fill:#ffffff;fill-opacity:1;fill-rule:nonzero;stroke:none"
         sodipodi:type="star"
         transform="matrix(0.03432678,0.01945994,0.01015483,0.05318156,86.326384,914.77451)" />
      <path
         inkscape:export-ydpi="200"
         inkscape:export-xdpi="200"
         inkscape:export-filename="/home/tassadar/data/soc/soc_multirom/img/dragon.png"
         inkscape:transform-center-y="0.75708756"
         inkscape:transform-center-x="0.18735781"
         d="m 148.80222,149.78665 c 1.9866,83.90934 1.9866,83.90934 -71.674323,43.67511 C 3.4669705,153.22754 3.4669705,153.22754 75.141298,109.55242 146.81563,65.877298 146.81563,65.877298 148.80222,149.78665 z"
         inkscape:randomized="0"
         inkscape:rounded="1"
         inkscape:flatsided="true"
         sodipodi:arg2="1.0235263"
         sodipodi:arg1="-0.023671113"
         sodipodi:r2="36.65937"
         sodipodi:r1="48.45866"
         sodipodi:cy="150.93361"
         sodipodi:cx="100.35714"
         sodipodi:sides="3"
         id="path5335-8-1-2-7-6-3-4-6-6-2"
         style="fill:#ffffff;fill-opacity:1;fill-rule:nonzero;stroke:none"
         sodipodi:type="star"
         transform="matrix(0.03784679,0.02145544,0.01119614,0.05863504,91.568154,910.11711)" />
      <path
         inkscape:export-ydpi="200"
         inkscape:export-xdpi="200"
         inkscape:export-filename="/home/tassadar/data/soc/soc_multirom/img/dragon.png"
         inkscape:transform-center-y="0.79055097"
         inkscape:transform-center-x="0.19569449"
         d="m 148.80222,149.78665 c 1.9866,83.90934 1.9866,83.90934 -71.674323,43.67511 C 3.4669705,153.22754 3.4669705,153.22754 75.141298,109.55242 146.81563,65.877298 146.81563,65.877298 148.80222,149.78665 z"
         inkscape:randomized="0"
         inkscape:rounded="1"
         inkscape:flatsided="true"
         sodipodi:arg2="1.0235263"
         sodipodi:arg1="-0.023671113"
         sodipodi:r2="36.65937"
         sodipodi:r1="48.45866"
         sodipodi:cy="150.93361"
         sodipodi:cx="100.35714"
         sodipodi:sides="3"
         id="path5335-8-1-2-7-3-9-1-4-4-1"
         style="fill:#ffffff;fill-opacity:1;fill-rule:nonzero;stroke:none"
         sodipodi:type="star"
         transform="matrix(0.0395186,0.0224032,0.01169072,0.06122514,97.747044,906.09284)" />
      <path
         inkscape:export-ydpi="200"
         inkscape:export-xdpi="200"
         inkscape:export-filename="/home/tassadar/data/soc/soc_multirom/img/dragon.png"
         inkscape:transform-center-y="0.90040264"
         inkscape:transform-center-x="0.22288074"
         d="m 148.80222,149.78665 c 1.9866,83.90934 1.9866,83.90934 -71.674323,43.67511 C 3.4669705,153.22754 3.4669705,153.22754 75.141298,109.55242 146.81563,65.877298 146.81563,65.877298 148.80222,149.78665 z"
         inkscape:randomized="0"
         inkscape:rounded="1"
         inkscape:flatsided="true"
         sodipodi:arg2="1.0235263"
         sodipodi:arg1="-0.023671113"
         sodipodi:r2="36.65937"
         sodipodi:r1="48.45866"
         sodipodi:cy="150.93361"
         sodipodi:cx="100.35714"
         sodipodi:sides="3"
         id="path5335-8-1-2-7-3-3-5-9-9-7-8"
         style="fill:#ffffff;fill-opacity:1;fill-rule:nonzero;stroke:none"
         sodipodi:type="star"
         transform="matrix(0.04500977,0.02551616,0.01331515,0.06973245,103.59929,901.1121)" />
      <path
         inkscape:export-ydpi="200"
         inkscape:export-xdpi="200"
         inkscape:export-filename="/home/tassadar/data/soc/soc_multirom/img/dragon.png"
         inkscape:transform-center-y="0.43891654"
         inkscape:transform-center-x="0.10858975"
         d="m 148.80222,149.78665 c 1.9866,83.90934 1.9866,83.90934 -71.674323,43.67511 C 3.4669705,153.22754 3.4669705,153.22754 75.141298,109.55242 146.81563,65.877298 146.81563,65.877298 148.80222,149.78665 z"
         inkscape:randomized="0"
         inkscape:rounded="1"
         inkscape:flatsided="true"
         sodipodi:arg2="1.0235263"
         sodipodi:arg1="-0.023671113"
         sodipodi:r2="36.65937"
         sodipodi:r1="48.45866"
         sodipodi:cy="150.93361"
         sodipodi:cx="100.35714"
         sodipodi:sides="3"
         id="path5335-8-1-2-7-33-1-2-7-8-0"
         style="fill:#ffffff;fill-opacity:1;fill-rule:nonzero;stroke:none"
         sodipodi:type="star"
         transform="matrix(0.0219414,0.01243864,0.00649088,0.03399324,74.940934,927.01834)" />
      <path
         inkscape:export-ydpi="200"
         inkscape:export-xdpi="200"
         inkscape:export-filename="/home/tassadar/data/soc/soc_multirom/img/dragon.png"
         inkscape:transform-center-y="-0.46023765"
         inkscape:transform-center-x="-0.11389944"
         d="m 148.80222,149.78665 c 1.9866,83.90934 1.9866,83.90934 -71.674323,43.67511 C 3.4669705,153.22754 3.4669705,153.22754 75.141298,109.55242 146.81563,65.877298 146.81563,65.877298 148.80222,149.78665 z"
         inkscape:randomized="0"
         inkscape:rounded="1"
         inkscape:flatsided="true"
         sodipodi:arg2="1.0235263"
         sodipodi:arg1="-0.023671113"
         sodipodi:r2="36.65937"
         sodipodi:r1="48.45866"
         sodipodi:cy="150.93361"
         sodipodi:cx="100.35714"
         sodipodi:sides="3"
         id="path5335-8-1-2-7-3-3-9-2-6-1-6"
         style="fill:#ffffff;fill-opacity:1;fill-rule:nonzero;stroke:none"
         sodipodi:type="star"
         transform="matrix(-0.02300726,-0.01304288,-0.0068062,-0.03564453,82.060924,945.63611)" />
      <path
         inkscape:export-ydpi="200"
         inkscape:export-xdpi="200"
         inkscape:export-filename="/home/tassadar/data/soc/soc_multirom/img/dragon.png"
         transform="matrix(0.18880933,-0.0645083,0.0645083,0.18880933,37.882344,844.61159)"
         d="m 169.07428,265.95844 c 0,9.06574 -7.34924,16.41497 -16.41498,16.41497 -9.06574,0 -16.41498,-7.34923 -16.41498,-16.41497 0,-9.06575 7.34924,-16.41498 16.41498,-16.41498 9.06574,0 16.41498,7.34923 16.41498,16.41498 z"
         sodipodi:ry="16.41498"
         sodipodi:rx="16.41498"
         sodipodi:cy="265.95844"
         sodipodi:cx="152.6593"
         id="path4769-2-6-9-1-1-4-7"
         style="fill:#333333;fill-opacity:1;fill-rule:nonzero;stroke:none"
         sodipodi:type="arc" />
      <path
         inkscape:export-ydpi="200"
         inkscape:export-xdpi="200"
         inkscape:export-filename="/home/tassadar/data/soc/soc_multirom/img/dragon.png"
         id="path5335-88-9-75-9"
         d="m 348.98488,724.3599 c -5.3601,0.1011 -14.37793,5.32793 -32.4375,15.78125 -12.05806,6.9795 -20.08823,11.62032 -23.84375,14.6875 -24.50594,6.60923 -28.43859,11.896 -13.5625,25.0625 0.28641,1.92473 0.65426,4.11649 1.0625,6.65625 3.10005,19.28632 3.21559,19.61004 10.53125,2.5625 6.84202,5.10035 15.2996,11.05405 25.5,18.21875 45.99653,32.30768 58.36324,40.97137 66.15625,19.59375 37.66477,9.41088 37.10305,8.61619 6.09375,-21.125 -0.26012,-0.24948 -0.4316,-0.41083 -0.6875,-0.65625 0.86982,-4.36934 1.7875,-9.03671 2.78125,-14.3125 0.33319,-1.76889 0.62529,-3.30189 0.9375,-4.96875 1.41427,-0.32282 2.48524,-0.55952 4,-0.90625 44.6763,-10.22646 44.82988,-10.2874 0,-23.21875 2.82926,-24.29825 -3.89155,-27.89898 -35.90625,-21.875 -0.0627,-0.18635 -0.1236,-0.34133 -0.1875,-0.53125 -3.38084,-10.04892 -5.0774,-15.06985 -10.4375,-14.96875 z"
         style="fill:#f72f2f;fill-opacity:1;fill-rule:nonzero;stroke:none"
         inkscape:connector-curvature="0" />
      <path
         inkscape:export-ydpi="200"
         inkscape:export-xdpi="200"
         inkscape:export-filename="/home/tassadar/data/soc/soc_multirom/img/dragon.png"
         inkscape:transform-center-y="-2.2499153"
         inkscape:transform-center-x="4.7664776"
         d="m 148.80222,149.78665 c 1.9866,83.90934 1.9866,83.90934 -71.674323,43.67511 C 3.4669705,153.22754 3.4669705,153.22754 75.141298,109.55242 146.81563,65.877298 146.81563,65.877298 148.80222,149.78665 z"
         inkscape:randomized="0"
         inkscape:rounded="1"
         inkscape:flatsided="true"
         sodipodi:arg2="1.0235263"
         sodipodi:arg1="-0.023671113"
         sodipodi:r2="36.65937"
         sodipodi:r1="48.45866"
         sodipodi:cy="150.93361"
         sodipodi:cx="100.35714"
         sodipodi:sides="3"
         id="path5335-8-819-2-0-3-9-1-8-2-9"
         style="fill:#ffffff;fill-opacity:1;fill-rule:nonzero;stroke:none"
         sodipodi:type="star"
         transform="matrix(-0.13634557,0.17982149,-0.32240337,0.00188445,396.86214,728.39614)" />
      <path
         inkscape:export-ydpi="200"
         inkscape:export-xdpi="200"
         inkscape:export-filename="/home/tassadar/data/soc/soc_multirom/img/dragon.png"
         inkscape:transform-center-y="-0.48652911"
         inkscape:transform-center-x="-4.9540943"
         d="m 148.80222,149.78665 c 1.9866,83.90934 1.9866,83.90934 -71.674323,43.67511 C 3.4669705,153.22754 3.4669705,153.22754 75.141298,109.55242 146.81563,65.877298 146.81563,65.877298 148.80222,149.78665 z"
         inkscape:randomized="0"
         inkscape:rounded="1"
         inkscape:flatsided="true"
         sodipodi:arg2="1.0235263"
         sodipodi:arg1="-0.023671113"
         sodipodi:r2="36.65937"
         sodipodi:r1="48.45866"
         sodipodi:cy="150.93361"
         sodipodi:cx="100.35714"
         sodipodi:sides="3"
         id="path5335-8-819-2-0-3-05-6-4"
         style="fill:#ffffff;fill-opacity:1;fill-rule:nonzero;stroke:none"
         sodipodi:type="star"
         transform="matrix(0.15011686,-0.10770812,0.25265061,0.07645034,325.35578,770.75636)" />
      <path
         inkscape:export-ydpi="200"
         inkscape:export-xdpi="200"
         inkscape:export-filename="/home/tassadar/data/soc/soc_multirom/img/dragon.png"
         inkscape:transform-center-y="6.6382416"
         inkscape:transform-center-x="-6.8665944"
         d="m 148.80222,149.78665 c 1.9866,83.90934 1.9866,83.90934 -71.674323,43.67511 C 3.4669705,153.22754 3.4669705,153.22754 75.141298,109.55242 146.81563,65.877298 146.81563,65.877298 148.80222,149.78665 z"
         inkscape:randomized="0"
         inkscape:rounded="1"
         inkscape:flatsided="true"
         sodipodi:arg2="1.0235263"
         sodipodi:arg1="-0.023671113"
         sodipodi:r2="36.65937"
         sodipodi:r1="48.45866"
         sodipodi:cy="150.93361"
         sodipodi:cx="100.35714"
         sodipodi:sides="3"
         id="path5335-8-819-2-0-3-0-7-9-1"
         style="fill:#ffffff;fill-opacity:1;fill-rule:nonzero;stroke:none"
         sodipodi:type="star"
         transform="matrix(0.17429331,-0.02948265,0.18230496,0.17950541,325.25076,784.49971)" />
      <path
         inkscape:export-ydpi="200"
         inkscape:export-xdpi="200"
         inkscape:export-filename="/home/tassadar/data/soc/soc_multirom/img/dragon.png"
         inkscape:transform-center-y="-0.46072131"
         inkscape:transform-center-x="1.4754254"
         d="m 148.80222,149.78665 c 1.9866,83.90934 1.9866,83.90934 -71.674323,43.67511 C 3.4669705,153.22754 3.4669705,153.22754 75.141298,109.55242 146.81563,65.877298 146.81563,65.877298 148.80222,149.78665 z"
         inkscape:randomized="0"
         inkscape:rounded="1"
         inkscape:flatsided="true"
         sodipodi:arg2="1.0235263"
         sodipodi:arg1="-0.023671113"
         sodipodi:r2="36.65937"
         sodipodi:r1="48.45866"
         sodipodi:cy="150.93361"
         sodipodi:cx="100.35714"
         sodipodi:sides="3"
         id="path5335-8-1-9-6-6-0-8"
         style="fill:#ffffff;fill-opacity:1;fill-rule:nonzero;stroke:none"
         sodipodi:type="star"
         transform="matrix(-0.04233435,0.0521736,-0.09654318,-0.01177471,302.70076,761.70821)" />
      <path
         inkscape:export-ydpi="200"
         inkscape:export-xdpi="200"
         inkscape:export-filename="/home/tassadar/data/soc/soc_multirom/img/dragon.png"
         inkscape:transform-center-y="2.5328938"
         inkscape:transform-center-x="-0.72963858"
         d="m 148.80222,149.78665 c 1.9866,83.90934 1.9866,83.90934 -71.674323,43.67511 C 3.4669705,153.22754 3.4669705,153.22754 75.141298,109.55242 146.81563,65.877298 146.81563,65.877298 148.80222,149.78665 z"
         inkscape:randomized="0"
         inkscape:rounded="1"
         inkscape:flatsided="true"
         sodipodi:arg2="1.0235263"
         sodipodi:arg1="-0.023671113"
         sodipodi:r2="36.65937"
         sodipodi:r1="48.45866"
         sodipodi:cy="150.93361"
         sodipodi:cx="100.35714"
         sodipodi:sides="3"
         id="path5335-8-1-2-4-84-5-2"
         style="fill:#ffffff;fill-opacity:1;fill-rule:nonzero;stroke:none"
         sodipodi:type="star"
         transform="matrix(0.05773873,0.09152609,-0.05792223,0.12972458,289.26307,751.38578)" />
      <path
         inkscape:export-ydpi="200"
         inkscape:export-xdpi="200"
         inkscape:export-filename="/home/tassadar/data/soc/soc_multirom/img/dragon.png"
         inkscape:transform-center-y="1.3536429"
         inkscape:transform-center-x="-0.31702558"
         d="m 148.80222,149.78665 c 1.9866,83.90934 1.9866,83.90934 -71.674323,43.67511 C 3.4669705,153.22754 3.4669705,153.22754 75.141298,109.55242 146.81563,65.877298 146.81563,65.877298 148.80222,149.78665 z"
         inkscape:randomized="0"
         inkscape:rounded="1"
         inkscape:flatsided="true"
         sodipodi:arg2="1.0235263"
         sodipodi:arg1="-0.023671113"
         sodipodi:r2="36.65937"
         sodipodi:r1="48.45866"
         sodipodi:cy="150.93361"
         sodipodi:cx="100.35714"
         sodipodi:sides="3"
         id="path5335-8-1-2-7-81-2-6-4"
         style="fill:#ffffff;fill-opacity:1;fill-rule:nonzero;stroke:none"
         sodipodi:type="star"
         transform="matrix(0.02602359,0.0466695,-0.02567196,0.06867731,301.18388,763.00439)" />
      <path
         inkscape:export-ydpi="200"
         inkscape:export-xdpi="200"
         inkscape:export-filename="/home/tassadar/data/soc/soc_multirom/img/dragon.png"
         inkscape:transform-center-y="1.1885038"
         inkscape:transform-center-x="-0.27835164"
         d="m 148.80222,149.78665 c 1.9866,83.90934 1.9866,83.90934 -71.674323,43.67511 C 3.4669705,153.22754 3.4669705,153.22754 75.141298,109.55242 146.81563,65.877298 146.81563,65.877298 148.80222,149.78665 z"
         inkscape:randomized="0"
         inkscape:rounded="1"
         inkscape:flatsided="true"
         sodipodi:arg2="1.0235263"
         sodipodi:arg1="-0.023671113"
         sodipodi:r2="36.65937"
         sodipodi:r1="48.45866"
         sodipodi:cy="150.93361"
         sodipodi:cx="100.35714"
         sodipodi:sides="3"
         id="path5335-8-1-2-7-8-1-6-4-0"
         style="fill:#ffffff;fill-opacity:1;fill-rule:nonzero;stroke:none"
         sodipodi:type="star"
         transform="matrix(0.02284873,0.04097584,-0.02254,0.06029873,309.12781,765.61327)" />
      <path
         inkscape:export-ydpi="200"
         inkscape:export-xdpi="200"
         inkscape:export-filename="/home/tassadar/data/soc/soc_multirom/img/dragon.png"
         inkscape:transform-center-y="1.1382115"
         inkscape:transform-center-x="-0.2666267"
         d="m 148.80222,149.78665 c 1.9866,83.90934 1.9866,83.90934 -71.674323,43.67511 C 3.4669705,153.22754 3.4669705,153.22754 75.141298,109.55242 146.81563,65.877298 146.81563,65.877298 148.80222,149.78665 z"
         inkscape:randomized="0"
         inkscape:rounded="1"
         inkscape:flatsided="true"
         sodipodi:arg2="1.0235263"
         sodipodi:arg1="-0.023671113"
         sodipodi:r2="36.65937"
         sodipodi:r1="48.45866"
         sodipodi:cy="150.93361"
         sodipodi:cx="100.35714"
         sodipodi:sides="3"
         id="path5335-8-1-2-7-86-9-3-7-1"
         style="fill:#ffffff;fill-opacity:1;fill-rule:nonzero;stroke:none"
         sodipodi:type="star"
         transform="matrix(0.02188213,0.03924238,-0.02158646,0.05774782,316.15959,766.82767)" />
      <path
         inkscape:export-ydpi="200"
         inkscape:export-xdpi="200"
         inkscape:export-filename="/home/tassadar/data/soc/soc_multirom/img/dragon.png"
         inkscape:transform-center-y="1.0323572"
         inkscape:transform-center-x="-0.24175112"
         d="m 148.80222,149.78665 c 1.9866,83.90934 1.9866,83.90934 -71.674323,43.67511 C 3.4669705,153.22754 3.4669705,153.22754 75.141298,109.55242 146.81563,65.877298 146.81563,65.877298 148.80222,149.78665 z"
         inkscape:randomized="0"
         inkscape:rounded="1"
         inkscape:flatsided="true"
         sodipodi:arg2="1.0235263"
         sodipodi:arg1="-0.023671113"
         sodipodi:r2="36.65937"
         sodipodi:r1="48.45866"
         sodipodi:cy="150.93361"
         sodipodi:cx="100.35714"
         sodipodi:sides="3"
         id="path5335-8-1-2-7-6-9-1-2-9"
         style="fill:#ffffff;fill-opacity:1;fill-rule:nonzero;stroke:none"
         sodipodi:type="star"
         transform="matrix(0.01984694,0.03559256,-0.01957876,0.05237687,322.36038,768.34636)" />
      <path
         inkscape:export-ydpi="200"
         inkscape:export-xdpi="200"
         inkscape:export-filename="/home/tassadar/data/soc/soc_multirom/img/dragon.png"
         inkscape:transform-center-y="0.9443528"
         inkscape:transform-center-x="-0.22115518"
         d="m 148.80222,149.78665 c 1.9866,83.90934 1.9866,83.90934 -71.674323,43.67511 C 3.4669705,153.22754 3.4669705,153.22754 75.141298,109.55242 146.81563,65.877298 146.81563,65.877298 148.80222,149.78665 z"
         inkscape:randomized="0"
         inkscape:rounded="1"
         inkscape:flatsided="true"
         sodipodi:arg2="1.0235263"
         sodipodi:arg1="-0.023671113"
         sodipodi:r2="36.65937"
         sodipodi:r1="48.45866"
         sodipodi:cy="150.93361"
         sodipodi:cx="100.35714"
         sodipodi:sides="3"
         id="path5335-8-1-2-7-3-5-2-4-1"
         style="fill:#ffffff;fill-opacity:1;fill-rule:nonzero;stroke:none"
         sodipodi:type="star"
         transform="matrix(0.01815504,0.0325584,-0.01790973,0.04791187,327.66607,769.77079)" />
      <path
         inkscape:export-ydpi="200"
         inkscape:export-xdpi="200"
         inkscape:export-filename="/home/tassadar/data/soc/soc_multirom/img/dragon.png"
         inkscape:transform-center-y="0.91326624"
         inkscape:transform-center-x="-0.21389128"
         d="m 148.80222,149.78665 c 1.9866,83.90934 1.9866,83.90934 -71.674323,43.67511 C 3.4669705,153.22754 3.4669705,153.22754 75.141298,109.55242 146.81563,65.877298 146.81563,65.877298 148.80222,149.78665 z"
         inkscape:randomized="0"
         inkscape:rounded="1"
         inkscape:flatsided="true"
         sodipodi:arg2="1.0235263"
         sodipodi:arg1="-0.023671113"
         sodipodi:r2="36.65937"
         sodipodi:r1="48.45866"
         sodipodi:cy="150.93361"
         sodipodi:cx="100.35714"
         sodipodi:sides="3"
         id="path5335-8-1-2-7-3-3-4-6-1-0"
         style="fill:#ffffff;fill-opacity:1;fill-rule:nonzero;stroke:none"
         sodipodi:type="star"
         transform="matrix(0.0175573,0.03148644,-0.01732007,0.04633441,332.82007,770.62979)" />
      <path
         inkscape:export-ydpi="200"
         inkscape:export-xdpi="200"
         inkscape:export-filename="/home/tassadar/data/soc/soc_multirom/img/dragon.png"
         inkscape:transform-center-y="-0.91325547"
         inkscape:transform-center-x="0.21385034"
         d="m 148.80222,149.78665 c 1.9866,83.90934 1.9866,83.90934 -71.674323,43.67511 C 3.4669705,153.22754 3.4669705,153.22754 75.141298,109.55242 146.81563,65.877298 146.81563,65.877298 148.80222,149.78665 z"
         inkscape:randomized="0"
         inkscape:rounded="1"
         inkscape:flatsided="true"
         sodipodi:arg2="1.0235263"
         sodipodi:arg1="-0.023671113"
         sodipodi:r2="36.65937"
         sodipodi:r1="48.45866"
         sodipodi:cy="150.93361"
         sodipodi:cx="100.35714"
         sodipodi:sides="3"
         id="path5335-8-1-2-7-33-3-23-0-6"
         style="fill:#ffffff;fill-opacity:1;fill-rule:nonzero;stroke:none"
         sodipodi:type="star"
         transform="matrix(-0.0175573,-0.03148644,0.01732007,-0.04633441,327.7388,796.28051)" />
      <path
         inkscape:export-ydpi="200"
         inkscape:export-xdpi="200"
         inkscape:export-filename="/home/tassadar/data/soc/soc_multirom/img/dragon.png"
         inkscape:transform-center-y="-0.94434235"
         inkscape:transform-center-x="0.22112107"
         d="m 148.80222,149.78665 c 1.9866,83.90934 1.9866,83.90934 -71.674323,43.67511 C 3.4669705,153.22754 3.4669705,153.22754 75.141298,109.55242 146.81563,65.877298 146.81563,65.877298 148.80222,149.78665 z"
         inkscape:randomized="0"
         inkscape:rounded="1"
         inkscape:flatsided="true"
         sodipodi:arg2="1.0235263"
         sodipodi:arg1="-0.023671113"
         sodipodi:r2="36.65937"
         sodipodi:r1="48.45866"
         sodipodi:cy="150.93361"
         sodipodi:cx="100.35714"
         sodipodi:sides="3"
         id="path5335-8-1-2-7-8-4-0-6-4-8"
         style="fill:#ffffff;fill-opacity:1;fill-rule:nonzero;stroke:none"
         sodipodi:type="star"
         transform="matrix(-0.01815504,-0.0325584,0.01790973,-0.04791187,322.64721,797.19993)" />
      <path
         inkscape:export-ydpi="200"
         inkscape:export-xdpi="200"
         inkscape:export-filename="/home/tassadar/data/soc/soc_multirom/img/dragon.png"
         inkscape:transform-center-y="-1.0323577"
         inkscape:transform-center-x="0.24176813"
         d="m 148.80222,149.78665 c 1.9866,83.90934 1.9866,83.90934 -71.674323,43.67511 C 3.4669705,153.22754 3.4669705,153.22754 75.141298,109.55242 146.81563,65.877298 146.81563,65.877298 148.80222,149.78665 z"
         inkscape:randomized="0"
         inkscape:rounded="1"
         inkscape:flatsided="true"
         sodipodi:arg2="1.0235263"
         sodipodi:arg1="-0.023671113"
         sodipodi:r2="36.65937"
         sodipodi:r1="48.45866"
         sodipodi:cy="150.93361"
         sodipodi:cx="100.35714"
         sodipodi:sides="3"
         id="path5335-8-1-2-7-86-8-5-87-2-7"
         style="fill:#ffffff;fill-opacity:1;fill-rule:nonzero;stroke:none"
         sodipodi:type="star"
         transform="matrix(-0.01984694,-0.03559256,0.01957876,-0.05237687,316.82345,798.10709)" />
      <path
         inkscape:export-ydpi="200"
         inkscape:export-xdpi="200"
         inkscape:export-filename="/home/tassadar/data/soc/soc_multirom/img/dragon.png"
         inkscape:transform-center-y="-1.1382142"
         inkscape:transform-center-x="0.26655968"
         d="m 148.80222,149.78665 c 1.9866,83.90934 1.9866,83.90934 -71.674323,43.67511 C 3.4669705,153.22754 3.4669705,153.22754 75.141298,109.55242 146.81563,65.877298 146.81563,65.877298 148.80222,149.78665 z"
         inkscape:randomized="0"
         inkscape:rounded="1"
         inkscape:flatsided="true"
         sodipodi:arg2="1.0235263"
         sodipodi:arg1="-0.023671113"
         sodipodi:r2="36.65937"
         sodipodi:r1="48.45866"
         sodipodi:cy="150.93361"
         sodipodi:cx="100.35714"
         sodipodi:sides="3"
         id="path5335-8-1-2-7-6-3-4-4-6-7"
         style="fill:#ffffff;fill-opacity:1;fill-rule:nonzero;stroke:none"
         sodipodi:type="star"
         transform="matrix(-0.02188213,-0.03924238,0.02158646,-0.05774782,309.69875,799.40382)" />
      <path
         inkscape:export-ydpi="200"
         inkscape:export-xdpi="200"
         inkscape:export-filename="/home/tassadar/data/soc/soc_multirom/img/dragon.png"
         inkscape:transform-center-y="-1.1884911"
         inkscape:transform-center-x="0.27831183"
         d="m 148.80222,149.78665 c 1.9866,83.90934 1.9866,83.90934 -71.674323,43.67511 C 3.4669705,153.22754 3.4669705,153.22754 75.141298,109.55242 146.81563,65.877298 146.81563,65.877298 148.80222,149.78665 z"
         inkscape:randomized="0"
         inkscape:rounded="1"
         inkscape:flatsided="true"
         sodipodi:arg2="1.0235263"
         sodipodi:arg1="-0.023671113"
         sodipodi:r2="36.65937"
         sodipodi:r1="48.45866"
         sodipodi:cy="150.93361"
         sodipodi:cx="100.35714"
         sodipodi:sides="3"
         id="path5335-8-1-2-7-3-9-1-9-5-2"
         style="fill:#ffffff;fill-opacity:1;fill-rule:nonzero;stroke:none"
         sodipodi:type="star"
         transform="matrix(-0.02284873,-0.04097584,0.02254,-0.06029873,302.08688,799.63898)" />
      <path
         inkscape:export-ydpi="200"
         inkscape:export-xdpi="200"
         inkscape:export-filename="/home/tassadar/data/soc/soc_multirom/img/dragon.png"
         inkscape:transform-center-y="-1.3536368"
         inkscape:transform-center-x="0.31699862"
         d="m 148.80222,149.78665 c 1.9866,83.90934 1.9866,83.90934 -71.674323,43.67511 C 3.4669705,153.22754 3.4669705,153.22754 75.141298,109.55242 146.81563,65.877298 146.81563,65.877298 148.80222,149.78665 z"
         inkscape:randomized="0"
         inkscape:rounded="1"
         inkscape:flatsided="true"
         sodipodi:arg2="1.0235263"
         sodipodi:arg1="-0.023671113"
         sodipodi:r2="36.65937"
         sodipodi:r1="48.45866"
         sodipodi:cy="150.93361"
         sodipodi:cx="100.35714"
         sodipodi:sides="3"
         id="path5335-8-1-2-7-3-3-5-9-1-8-8"
         style="fill:#ffffff;fill-opacity:1;fill-rule:nonzero;stroke:none"
         sodipodi:type="star"
         transform="matrix(-0.02602359,-0.0466695,0.02567196,-0.06867731,294.24998,800.89343)" />
      <path
         inkscape:export-ydpi="200"
         inkscape:export-xdpi="200"
         inkscape:export-filename="/home/tassadar/data/soc/soc_multirom/img/dragon.png"
         inkscape:transform-center-y="-0.6598603"
         inkscape:transform-center-x="0.15452759"
         d="m 148.80222,149.78665 c 1.9866,83.90934 1.9866,83.90934 -71.674323,43.67511 C 3.4669705,153.22754 3.4669705,153.22754 75.141298,109.55242 146.81563,65.877298 146.81563,65.877298 148.80222,149.78665 z"
         inkscape:randomized="0"
         inkscape:rounded="1"
         inkscape:flatsided="true"
         sodipodi:arg2="1.0235263"
         sodipodi:arg1="-0.023671113"
         sodipodi:r2="36.65937"
         sodipodi:r1="48.45866"
         sodipodi:cy="150.93361"
         sodipodi:cx="100.35714"
         sodipodi:sides="3"
         id="path5335-8-1-2-7-33-1-2-3-9-7"
         style="fill:#ffffff;fill-opacity:1;fill-rule:nonzero;stroke:none"
         sodipodi:type="star"
         transform="matrix(-0.012686,-0.02275049,0.01251459,-0.03347888,333.44051,793.41305)" />
      <path
         inkscape:export-ydpi="200"
         inkscape:export-xdpi="200"
         inkscape:export-filename="/home/tassadar/data/soc/soc_multirom/img/dragon.png"
         inkscape:transform-center-y="0.69193967"
         inkscape:transform-center-x="-0.16209042"
         d="m 148.80222,149.78665 c 1.9866,83.90934 1.9866,83.90934 -71.674323,43.67511 C 3.4669705,153.22754 3.4669705,153.22754 75.141298,109.55242 146.81563,65.877298 146.81563,65.877298 148.80222,149.78665 z"
         inkscape:randomized="0"
         inkscape:rounded="1"
         inkscape:flatsided="true"
         sodipodi:arg2="1.0235263"
         sodipodi:arg1="-0.023671113"
         sodipodi:r2="36.65937"
         sodipodi:r1="48.45866"
         sodipodi:cy="150.93361"
         sodipodi:cx="100.35714"
         sodipodi:sides="3"
         id="path5335-8-1-2-7-3-3-9-2-8-3-6"
         style="fill:#ffffff;fill-opacity:1;fill-rule:nonzero;stroke:none"
         sodipodi:type="star"
         transform="matrix(0.01330226,0.02385565,-0.01312252,0.0351052,337.14887,773.16385)" />
      <path
         inkscape:export-ydpi="200"
         inkscape:export-xdpi="200"
         inkscape:export-filename="/home/tassadar/data/soc/soc_multirom/img/dragon.png"
         transform="matrix(0.29788917,0.00989185,-0.00989185,0.29788917,282.28124,668.39567)"
         d="m 169.07428,265.95844 c 0,9.06574 -7.34924,16.41497 -16.41498,16.41497 -9.06574,0 -16.41498,-7.34923 -16.41498,-16.41497 0,-9.06575 7.34924,-16.41498 16.41498,-16.41498 9.06574,0 16.41498,7.34923 16.41498,16.41498 z"
         sodipodi:ry="16.41498"
         sodipodi:rx="16.41498"
         sodipodi:cy="265.95844"
         sodipodi:cx="152.6593"
         id="path4769-2-6-9-1-1-7-8-5"
         style="fill:#f72f2f;fill-opacity:1;fill-rule:nonzero;stroke:none"
         sodipodi:type="arc" />
      <path
         inkscape:export-ydpi="200"
         inkscape:export-xdpi="200"
         inkscape:export-filename="/home/tassadar/data/soc/soc_multirom/img/dragon.png"
         inkscape:transform-center-y="2.8925667"
         inkscape:transform-center-x="7.2233588"
         d="m 148.80222,149.78665 c 1.9866,83.90934 1.9866,83.90934 -71.674323,43.67511 C 3.4669705,153.22754 3.4669705,153.22754 75.141298,109.55242 146.81563,65.877298 146.81563,65.877298 148.80222,149.78665 z"
         inkscape:randomized="0"
         inkscape:rounded="1"
         inkscape:flatsided="true"
         sodipodi:arg2="1.0235263"
         sodipodi:arg1="-0.023671113"
         sodipodi:r2="36.65937"
         sodipodi:r1="48.45866"
         sodipodi:cy="150.93361"
         sodipodi:cx="100.35714"
         sodipodi:sides="3"
         id="path5335-8-819-2-0-3-6-2-21-2-1"
         style="fill:#333333;fill-opacity:1;fill-rule:nonzero;stroke:none"
         sodipodi:type="star"
         transform="matrix(-0.20797741,-0.24378891,-0.45721032,0.02366013,264.99838,1116.8526)" />
      <path
         inkscape:export-ydpi="200"
         inkscape:export-xdpi="200"
         inkscape:export-filename="/home/tassadar/data/soc/soc_multirom/img/dragon.png"
         inkscape:transform-center-y="1.3676916"
         inkscape:transform-center-x="3.41531"
         d="m 148.80222,149.78665 c 1.9866,83.90934 1.9866,83.90934 -71.674323,43.67511 C 3.4669705,153.22754 3.4669705,153.22754 75.141298,109.55242 146.81563,65.877298 146.81563,65.877298 148.80222,149.78665 z"
         inkscape:randomized="0"
         inkscape:rounded="1"
         inkscape:flatsided="true"
         sodipodi:arg2="1.0235263"
         sodipodi:arg1="-0.023671113"
         sodipodi:r2="36.65937"
         sodipodi:r1="48.45866"
         sodipodi:cy="150.93361"
         sodipodi:cx="100.35714"
         sodipodi:sides="3"
         id="path5335-8-819-2-0-3-05-60-4-9"
         style="fill:#ffffff;fill-opacity:1;fill-rule:nonzero;stroke:none"
         sodipodi:type="star"
         transform="matrix(-0.0983329,-0.11526479,-0.21617164,0.01118665,219.16688,1105.1109)" />
      <path
         inkscape:export-ydpi="200"
         inkscape:export-xdpi="200"
         inkscape:export-filename="/home/tassadar/data/soc/soc_multirom/img/dragon.png"
         id="rect3344-8"
         d="m 225.80555,598.57947 c -0.28066,-0.0131 -0.57621,0.15381 -0.73465,0.44768 l -3.34037,6.19861 c -3.05477,-1.42943 -6.49894,-2.24986 -10.14737,-2.24986 -3.66145,0 -7.11895,0.82233 -10.1818,2.26135 l -3.29445,-6.10679 c -0.21127,-0.39183 -0.65482,-0.56421 -0.99867,-0.37881 -0.34385,0.1854 -0.45232,0.65276 -0.24106,1.04458 l 3.28298,6.07236 c -6.74414,3.68213 -11.28379,10.5144 -11.28379,18.34331 l 22.71679,0 22.70531,0 c 0,-7.83763 -4.53868,-14.6756 -11.29526,-18.3548 l 3.31741,-6.15269 c 0.21127,-0.39183 0.10279,-0.85919 -0.24106,-1.04459 -0.086,-0.0463 -0.17046,-0.076 -0.26401,-0.0803 z m -24.70265,13.75175 c 1.04404,0 1.89403,0.8385 1.89403,1.88254 0,1.04404 -0.84999,1.89403 -1.89403,1.89403 -1.04403,0 -1.88254,-0.84999 -1.88254,-1.89403 0,-1.04404 0.83851,-1.88254 1.88254,-1.88254 z m 20.88017,0 c 1.04403,0 1.89402,0.8385 1.89402,1.88254 0,1.04404 -0.84999,1.89403 -1.89402,1.89403 -1.04404,0 -1.88255,-0.84999 -1.88255,-1.89403 0,-1.04404 0.83851,-1.88254 1.88255,-1.88254 z m -40.19919,12.67273 c -2.81627,0 -5.08517,2.26889 -5.08517,5.08516 l 0,21.46559 c 0,2.81627 2.2689,5.08516 5.08517,5.08516 l 0.11479,0 c 2.81627,0 5.08516,-2.26889 5.08516,-5.08516 l 0,-21.46559 c 0,-2.81627 -2.26889,-5.08516 -5.08516,-5.08516 l -0.11479,0 z m 59.50673,0.0574 c -2.81627,0 -5.08516,2.26889 -5.08516,5.08516 l 0,21.46559 c 0,2.81627 2.26889,5.08517 5.08516,5.08517 l 0.11479,0 c 2.81627,0 5.08517,-2.2689 5.08517,-5.08517 l 0,-21.46559 c 0,-2.81627 -2.2689,-5.08516 -5.08517,-5.08516 l -0.11479,0 z m -52.42424,1.12494 0,5.50988 0,23.48588 0,3.8684 c 0,3.05247 2.45741,5.50988 5.50989,5.50988 l 3.55846,0 0,11.19195 c 0,2.81627 2.2689,5.08516 5.08517,5.08516 l 0.11478,0 c 2.81627,0 5.08517,-2.26889 5.08517,-5.08516 l 0,-11.19195 6.61186,0 0,11.19195 c 0,2.81627 2.26889,5.08516 5.08516,5.08516 l 0.11479,0 c 2.81627,0 5.08516,-2.26889 5.08516,-5.08516 l 0,-11.19195 3.66178,0 c 3.05247,0 5.50988,-2.45741 5.50988,-5.50988 l 0,-3.8684 0,-23.48588 0,-5.50988 -5.50988,0 -34.40233,0 -5.50989,0 z"
         style="fill:#f72f2f;fill-opacity:1;fill-rule:nonzero;stroke:none"
         inkscape:connector-curvature="0" />
      <path
         inkscape:export-ydpi="200"
         inkscape:export-xdpi="200"
         inkscape:export-filename="/home/tassadar/data/soc/soc_multirom/img/dragon.png"
         style="fill:#f72f2f;fill-opacity:1"
         id="path4531"
         d="m 177.29337,919.14059 c -3.71023,0 -6.7166,3.00638 -6.7166,6.71661 0,3.70881 3.00637,6.71551 6.7166,6.71551 3.70881,0 6.71555,-3.0067 6.71555,-6.71551 0,-3.71059 -3.00638,-6.71661 -6.71555,-6.71661 z m 47.95539,30.52592 c -3.21259,1.8545 -4.31221,5.9605 -2.45834,9.1717 1.85494,3.2126 5.96057,4.3129 9.17317,2.4583 3.21153,-1.8542 4.31186,-5.9602 2.45728,-9.1724 -1.85423,-3.2112 -5.96058,-4.3119 -9.17211,-2.4576 z m -33.36648,-23.81038 c 0,-6.6378 3.29849,-12.50077 8.3426,-16.05092 l -4.91029,-8.22511 c -5.87787,3.9271 -10.25008,9.93062 -12.06633,16.96206 2.12151,1.72929 3.47704,4.36261 3.47704,7.31468 0,2.95136 -1.35553,5.58467 -3.47738,7.31357 1.81588,7.0322 6.18844,13.0357 12.06631,16.9625 l 4.91065,-8.2259 c -5.04411,-3.5494 -8.3426,-9.412 -8.3426,-16.05088 z m 19.61952,-19.61952 c 10.2497,0 18.65726,7.85881 19.53858,17.87959 l 9.57213,-0.13985 c -0.47101,-7.39845 -3.70277,-14.04229 -8.6695,-18.92526 -2.55347,0.96474 -5.50341,0.8185 -8.05297,-0.6538 -2.55276,-1.47373 -4.15462,-3.95975 -4.59333,-6.65768 -2.48176,-0.68682 -5.09379,-1.06128 -7.79456,-1.06128 -4.64479,0 -9.03296,1.09038 -12.93096,3.02128 l 4.6661,8.36248 c 2.51193,-1.16883 5.31102,-1.82548 8.26451,-1.82548 z m 0,39.2394 c -2.95384,0 -5.75258,-0.6567 -8.26487,-1.8255 l -4.6668,8.3632 c 3.89835,1.9302 8.28687,3.0209 12.93167,3.0209 2.70077,0 5.3128,-0.3744 7.79491,-1.0612 0.43871,-2.698 2.04093,-5.184 4.59404,-6.6588 2.54956,-1.4716 5.4995,-1.6178 8.05296,-0.6527 4.96638,-4.8834 8.19814,-11.5272 8.66844,-18.92564 l -9.57212,-0.13985 c -0.88062,10.02219 -9.28853,17.87959 -19.53823,17.87959 z m 13.7459,-43.43058 c 3.21224,1.85529 7.31859,0.75461 9.17246,-2.45657 1.85493,-3.21259 0.75532,-7.31859 -2.45728,-9.17352 -3.21189,-1.85423 -7.31788,-0.7539 -9.17281,2.45869 -1.85423,3.21119 -0.7539,7.31753 2.45763,9.1714 z"
         inkscape:connector-curvature="0" />
      <path
         inkscape:export-ydpi="200"
         inkscape:export-xdpi="200"
         inkscape:export-filename="/home/tassadar/data/soc/soc_multirom/img/dragon.png"
         inkscape:connector-curvature="0"
         id="path3164-6"
         d="m 183.70404,706.6765 c -0.29735,-0.003 -0.61393,0.0366 -0.90625,0.15625 -1.17025,0.4787 -1.72869,1.82974 -1.25,3 l 4.78125,11.71875 c -6.36332,2.40819 -9.71875,6.46109 -9.71875,13 l 0,13.71875 0,3.5625 0,3.90625 c 0,12.01252 11.38371,15.69969 31.78125,16.03125 l 0,0.0312 1.25,0 c 0.63761,0.006 1.28223,0 1.9375,0 0.65527,0 1.29989,0.006 1.9375,0 l 0.0937,0 c 21.13913,-0.20893 32.96875,-3.81946 32.96875,-16.0625 l 0,-3.90625 0,-3.5625 0,-13.71875 c 0,-6.53989 -3.38668,-10.59181 -9.75,-13 l 4.78125,-11.71875 c 0.4787,-1.17026 -0.0797,-2.5213 -1.25,-3 -1.16927,-0.47869 -2.48907,0.11097 -2.96875,1.28125 l -4.96875,12.125 c -5.48146,-1.25559 -12.48325,-1.75 -20.84375,-1.75 -1.09276,0 -2.14281,0.0145 -3.1875,0.0312 -6.9558,0.11378 -12.85962,0.62796 -17.625,1.71875 l -4.96875,-12.125 c -0.35902,-0.8777 -1.20171,-1.42706 -2.09375,-1.4375 z m 9.90625,27.65625 c 5.77869,0 10.46875,4.68909 10.46875,10.46875 0,5.77869 -4.69006,10.46875 -10.46875,10.46875 -5.77966,0 -10.46875,-4.69006 -10.46875,-10.46875 0,-5.77966 4.68909,-10.46875 10.46875,-10.46875 z m 35.96875,0 c 5.77868,0 10.46875,4.68909 10.46875,10.46875 0,5.77869 -4.69007,10.46875 -10.46875,10.46875 -5.77967,0 -10.46875,-4.69006 -10.46875,-10.46875 0,-5.77966 4.68908,-10.46875 10.46875,-10.46875 z m -22.03125,25.40625 8.0625,0 c 0.004,0.0608 0.0312,0.1257 0.0312,0.1875 0,1.6254 -1.31209,2.9375 -2.9375,2.9375 l -2.21875,0 c -1.62443,0 -2.9375,-1.3121 -2.9375,-2.9375 0,-0.0618 -0.004,-0.1267 0,-0.1875 z"
         style="fill:#f72f2f;fill-opacity:1;fill-rule:nonzero;stroke:none" />
      <path
         inkscape:export-ydpi="200"
         inkscape:export-xdpi="200"
         inkscape:export-filename="/home/tassadar/data/soc/soc_multirom/img/dragon.png"
         inkscape:connector-curvature="0"
         id="rect5023"
         d="m 194.96531,797.63258 c -9.47423,0 -17.22561,7.75138 -17.22561,17.22561 l 0,31.60236 c 0,9.47423 7.75138,17.22561 17.22561,17.22561 l 33.25866,0 c 9.47423,0 17.22561,-7.75138 17.22561,-17.22561 l 0,-31.60236 c 0,-9.47423 -7.75138,-17.22561 -17.22561,-17.22561 l -33.25866,0 z m 0,7.95028 33.25866,0 c 5.20729,0 9.27533,4.06804 9.27533,9.27533 l 0,31.60236 c 0,0.88015 -0.12953,1.71667 -0.34782,2.51759 -2.27686,-5.31457 -6.40401,-9.75123 -11.64385,-12.60451 l 3.9917,-7.40369 c 0.25434,-0.4717 0.13236,-1.03561 -0.28157,-1.2588 -0.10349,-0.0558 -0.20208,-0.0941 -0.3147,-0.0994 -0.33786,-0.0158 -0.70366,0.17624 -0.89441,0.53002 l -4.02482,7.46995 c -3.67746,-1.72082 -7.81487,-2.71634 -12.207,-2.71634 -4.40782,0 -8.56948,1.00055 -12.25668,2.7329 l -3.97514,-7.354 c -0.25433,-0.4717 -0.7786,-0.68696 -1.19254,-0.46377 -0.41394,0.22319 -0.55246,0.7871 -0.29813,1.25879 l 3.95857,7.32089 c -5.38656,2.94093 -9.59681,7.54589 -11.82604,13.06827 -0.31169,-0.93991 -0.49689,-1.93922 -0.49689,-2.99792 l 0,-31.60236 c 0,-5.20729 4.06804,-9.27533 9.27533,-9.27533 z m 4.19046,38.57542 c 1.25686,0 2.2857,1.01229 2.2857,2.26914 0,1.25686 -1.02884,2.28571 -2.2857,2.28571 -1.25686,0 -2.26915,-1.02885 -2.26915,-2.28571 0,-1.25685 1.01229,-2.26914 2.26915,-2.26914 z m 25.14275,0 c 1.25686,0 2.26915,1.01229 2.26915,2.26914 0,1.25686 -1.01229,2.28571 -2.26915,2.28571 -1.25686,0 -2.26914,-1.02885 -2.26914,-2.28571 0,-1.25685 1.01228,-2.26914 2.26914,-2.26914 z"
         style="font-size:medium;font-style:normal;font-variant:normal;font-weight:normal;font-stretch:normal;text-indent:0;text-align:start;text-decoration:none;line-height:normal;letter-spacing:normal;word-spacing:normal;text-transform:none;direction:ltr;block-progression:tb;writing-mode:lr-tb;text-anchor:start;baseline-shift:baseline;color:#000000;fill:#f72f2f;fill-opacity:1;stroke:none;stroke-width:15;marker:none;visibility:visible;display:inline;overflow:visible;enable-background:accumulate;font-family:Sans;-inkscape-font-specification:Sans" />
      <path
         inkscape:connector-curvature="0"
         id="path8792"
         d="m 4.8505236,519.59457 c -2.32947,-0.88155 -6.51648,-3.6704 -16.5677296,-11.03531 -11.820692,-8.66145 -15.316082,-11.60781 -15.091932,-12.72144 0.0939,-0.46658 0.78039,-0.5436 4.387342,-0.4922 6.78147,0.0966 28.5329496,3.03591 32.96737,4.45489 0.65524,0.20967 1.74006,0.863 2.41071,1.45184 1.70202,1.49439 1.63284,2.98668 -0.43215,9.32239 -1.70158,5.2207 -2.9145704,8.01237 -3.8010904,8.74812 -0.81915,0.67984 -2.48516,0.79673 -3.87252,0.27171 z m 5.4798004,-10.43509 c 2.92817,-1.48202 2.66837,-6.91005 -0.4068604,-8.50031 -2.17844,-1.12651 -5.2335,-0.31182 -6.52414,1.73979 -0.97372,1.54783 -0.74516,4.49706 0.4488,5.79115 1.7345,1.87998 4.01054,2.22034 6.4822004,0.96937 z"
         style="fill:#ffffff;fill-opacity:1;fill-rule:nonzero;stroke:none" />
      <path
         inkscape:connector-curvature="0"
         id="path8794"
         d="m 28.461364,561.55986 c -7.95241,-3.00313 -22.2726704,-9.95636 -24.4470304,-11.87031 -1.58408,-1.39437 -1.68864,-1.59133 -1.51844,-2.86028 0.31234,-2.32868 6.36458,-10.64669 8.2627104,-11.35601 2.23485,-0.83515 4.74495,1.838 15.0818,16.06143 8.58506,11.81297 8.71979,12.32832 2.62096,10.02517 z"
         style="fill:#ffffff;fill-opacity:1;fill-rule:nonzero;stroke:none" />
      <path
         inkscape:connector-curvature="0"
         id="path8796"
         d="m -5.1288964,589.30531 c -2.71578,-2.61205 -13.8373096,-16.61518 -16.0425896,-20.19921 -0.69841,-1.13506 -1.16709,-2.38478 -1.18939,-3.17147 -0.0314,-1.10626 0.18884,-1.49262 1.48883,-2.61224 1.58915,-1.36869 8.79288,-5.19774 10.48514,-5.57325 0.7650096,-0.16976 1.1941196,0.005 2.0062596,0.81716 1.2011,1.20111 2.06842,4.45323 3.44243,12.90797 2.28153,14.03904 2.73164,18.92056 1.7736,19.23521 -0.20679,0.0679 -1.09072,-0.56396 -1.96428,-1.40417 z"
         style="fill:#ffffff;fill-opacity:1;fill-rule:nonzero;stroke:none" />
      <path
         inkscape:connector-curvature="0"
         id="path8798"
         d="m -51.752908,493.71627 c -2.11525,-1.56828 -7.87948,-7.53873 -7.27828,-7.53866 0.78416,9e-5 5.85887,0.9988 8.35169,1.64363 2.70568,0.69989 3.18262,1.071 2.8875,2.24684 -0.33748,1.34463 -1.96995,4.6809 -2.29042,4.6809 -0.15269,0 -0.90441,-0.46472 -1.67049,-1.03271 z"
         style="fill:#ffffff;fill-opacity:1;fill-rule:nonzero;stroke:none" />
      <path
         inkscape:connector-curvature="0"
         id="path8800"
         d="m -67.252921,510.30162 c 0,-1.154 6.433452,-13.22793 7.869903,-14.76978 0.40114,-0.43057 1.07374,-0.78286 1.49466,-0.78286 1.02244,0 6.34972,5.31378 6.34972,6.33362 0,0.9364 -1.65083,2.24065 -6.07143,4.79677 -8.055728,4.65807 -9.642853,5.38593 -9.642853,4.42225 z"
         style="fill:#ffffff;fill-opacity:1;fill-rule:nonzero;stroke:none" />
    </g>
    <text
       xml:space="preserve"
       style="font-size:18px;font-style:normal;font-variant:normal;font-weight:300;font-stretch:normal;text-align:center;line-height:125%;letter-spacing:0px;word-spacing:0px;text-anchor:middle;fill:#000000;fill-opacity:1;stroke:none;font-family:Roboto;-inkscape-font-specification:Roboto Light"
       x="656.7005"
       y="754.16412"
       id="text4204"
       sodipodi:linespacing="125%"><tspan
         sodipodi:role="line"
         id="tspan4206"
         x="656.7005"
         y="754.16412"
         style="font-size:72px;font-weight:bold;fill:#000000;-inkscape-font-specification:Roboto Bold;fill-opacity:1">MultiROM</tspan></text>
    <flowRoot
       xml:space="preserve"
       id="flowRoot4212"
       style="fill:black;stroke:none;stroke-opacity:1;stroke-width:1px;stroke-linejoin:miter;stroke-linecap:butt;fill-opacity:1;font-family:Roboto;font-style:normal;font-weight:300;font-size:18px;line-height:125%;letter-spacing:0px;word-spacing:0px;-inkscape-font-specification:Roboto Light;font-stretch:normal;font-variant:normal;text-anchor:middle;text-align:center"><flowRegion
         id="flowRegion4214"><rect
           id="rect4216"
           width="353.55341"
           height="197.9899"
           x="494.97476"
           y="223.2182" /></flowRegion><flowPara
         id="flowPara4218"></flowPara></flowRoot>    <flowRoot
       xml:space="preserve"
       id="flowRoot4220"
       style="font-size:18px;font-style:normal;font-variant:normal;font-weight:300;font-stretch:normal;text-align:center;line-height:125%;letter-spacing:0px;word-spacing:0px;text-anchor:middle;fill:#4d4d4d;fill-opacity:1;stroke:none;font-family:Roboto;-inkscape-font-specification:Roboto Light"
       transform="translate(-101.28386,453.47326)"><flowRegion
         id="flowRegion4222"><rect
           id="rect4224"
           width="484.07605"
           height="247.99498"
           x="598.01031"
           y="332.31467"
           style="fill:#4d4d4d;fill-opacity:1" /></flowRegion><flowPara
         id="flowPara4226"
         style="font-size:40px;text-align:start;text-anchor:start;fill:#4d4d4d;fill-opacity:1">The multiboot modification</flowPara><flowPara
         style="font-size:40px;text-align:start;text-anchor:start;fill:#4d4d4d;fill-opacity:1"
         id="flowPara4228">for Android devices</flowPara></flowRoot>    <rect
       style="fill:#f72f2f;fill-opacity:1;fill-rule:nonzero;stroke:none"
       id="rect4255-1"
       width="1024"
       height="500"
       x="2256.5715"
       y="-269.06638" />
    <path
       style="fill:#f72f2f;fill-opacity:1;fill-rule:nonzero;stroke:none"
       d="M 249.99999,602.36217 C 139.54228,602.36217 50,691.90437 50,802.36212 c 0,110.45772 89.54228,200.00008 199.99999,200.00008 110.45778,0 199.99999,-89.54236 199.99999,-200.00008 0,-110.45774 -89.54221,-199.99995 -199.99999,-199.99995 z M 185.0634,647.4615 c 2.22034,0.0101 5.46709,1.00165 9.96995,2.80038 2.47149,-0.0928 7.15817,0.48903 14.17784,1.33421 11.84609,1.42624 17.00075,2.03273 18.63497,4.10526 1.27108,1.61189 0.42741,4.10978 -1.12892,8.53309 -0.0316,0.0965 -0.069,0.17023 -0.10259,0.26392 7.38605,3.63582 11.46192,6.33631 12.60905,9.2222 1.1467,2.88588 -0.6449,5.95855 -5.01432,10.40979 11.98252,16.05447 13.62082,18.32768 0.61579,12.77033 3.92963,4.90526 6.5807,9.97355 8.37181,14.86694 2.94828,8.05594 2.00143,16.25034 -0.35184,23.01882 -4.70671,13.53731 -13.35071,24.03604 -16.84628,37.75383 -2.223,8.72307 -0.28308,13.85663 2.87363,21.78726 1.27282,3.19667 2.785,6.81922 4.03197,10.89362 2.87196,-4.97402 6.28831,-8.84913 9.13425,-11.90527 6.04564,-6.49093 9.13309,-8.81552 8.94362,-17.90192 -0.22272,-10.67704 -2.19622,-20.24912 -2.43383,-29.82185 -0.23794,-9.57251 2.72091,-20.95373 12.44776,-27.53463 3.50015,-2.36816 7.35745,-3.28738 11.09886,-3.3282 3.74174,-0.0401 7.35878,0.80166 10.42445,1.95 6.13119,2.29652 11.45935,5.76996 16.33317,8.8703 0.59534,0.3785 1.16341,0.72043 1.74471,1.08497 2.4128,-0.68855 5.24901,-1.44958 8.62105,-2.36053 -0.72122,-6.51359 -0.19604,-10.22098 2.62446,-11.86128 2.82051,-1.64015 7.92919,-1.21754 16.39178,0.57179 0.0316,-0.10039 0.069,-0.19071 0.10259,-0.29323 1.58467,-4.6648 2.49269,-7.27832 4.58916,-7.78535 0.16843,-0.0408 0.35757,-0.0407 0.54246,-0.0586 2.77312,-0.20048 7.49139,2.66533 17.53533,8.76768 6.34883,3.85731 10.56836,6.41244 12.55043,8.09325 19.55197,5.74334 14.35816,9.34592 -12.53572,27.81319 -24.40351,16.75736 -30.95719,21.2477 -35.02675,9.72071 -18.95862,4.38481 -19.61657,4.23889 -5.70344,-8.94363 -2.36225,0.44192 -4.13332,0.86599 -6.28981,0.0733 -5.78009,-2.12417 -10.67386,-5.46506 -15.49738,-8.53308 -4.82344,-3.06798 -9.47877,-5.87439 -12.74107,-7.09626 -3.26212,-1.2221 -3.65179,-0.90142 -3.94393,-0.70375 -3.94169,2.66687 -4.13016,4.20913 -3.95865,11.08422 0.17068,6.87507 2.15574,17.25518 2.41912,29.88049 0.32016,15.33068 -8.20062,25.0945 -14.11914,31.4493 -3.59991,3.86525 -6.37303,6.64794 -8.0933,10.68838 12.04338,0.13169 23.93986,2.80924 33.69257,9.16355 24.5569,16.00069 49.59084,54.93638 54.46815,69.02718 0.21582,0.62369 0.38642,1.22926 0.52775,1.81807 15.17166,1.67569 24.87748,0.92084 29.26478,-0.51319 2.63536,-0.86126 3.06426,-1.5981 3.06426,-1.5981 0.008,-0.007 0.17932,0.0521 -0.0732,-1.33423 -0.50489,-2.77226 -4.13798,-9.41754 -9.77931,-15.84927 -5.64118,-6.43192 -12.9731,-13.00766 -19.61732,-18.09252 -22.36117,-17.11348 -26.71838,-40.60342 -19.8373,-58.07489 6.88107,-17.4712 21.84297,-27.50973 39.38129,-27.32939 18.01028,0.1849 32.99687,6.66049 40.173,17.53536 4.33792,6.57435 5.02447,14.00953 -0.0879,21.37675 -4.11254,5.92615 -6.98841,7.20044 -14.29515,9.35414 0.0208,5.95175 -2.90231,5.62427 -20.0572,3.66542 -20.6892,-2.36248 -20.68463,-2.36327 -0.90901,-10.54175 9.26976,-3.8338 14.19471,-5.87933 16.90489,-5.87933 2.34745,0.003 3.02095,1.55667 3.43081,4.7797 4.9952,-1.9585 5.48629,-3.58124 6.7444,-7.27218 1.22793,-3.60255 -0.29231,-8.32692 -2.99093,-11.01092 -7.01992,-6.98202 -19.09955,-10.02786 -28.7076,-7.63873 -9.53663,2.37166 -19.39077,10.47314 -21.62599,20.0425 -2.89491,12.39372 -3.55942,22.52332 13.62074,35.67186 7.55349,5.78084 15.61245,12.97906 22.37372,20.68763 6.76136,7.70863 12.54536,15.57954 14.28043,25.10082 0.86729,4.76061 0.36156,10.41227 -2.62438,15.13085 -2.98586,4.71854 -7.86151,7.83155 -13.37149,9.63272 -10.88088,3.55662 -26.09926,2.79489 -47.94373,-0.58647 -8.12472,2.71506 -17.2924,2.96483 -18.81089,2.90299 -1.64462,-0.0668 -3.57406,1.02022 -5.07294,1.39291 0.32948,6.82219 -4.39669,6.79256 -26.55235,6.65639 -28.17834,-0.1732 -28.17435,-0.16994 -2.75632,-14.04588 2.27172,-1.24048 4.27207,-2.33936 6.15787,-3.35757 -3.74665,0.11951 -7.97616,-0.29553 -12.68237,-1.9793 -5.7002,-2.0395 -12.6137,-4.56871 -19.89591,-7.5361 0.70076,2.52524 1.4598,5.06286 2.43383,7.68272 2.8511,7.66786 -1.17065,8.1883 -5.39542,10.55638 -6.02643,3.37823 -12.09642,1.43224 -18.29785,6.48048 -0.47563,1.79238 -3.61579,1.72633 -12.84358,1.53946 -4.68958,-0.0947 -7.79333,-0.15608 -9.41284,-0.42513 -2.12872,0.50732 -6.1217,0.4182 -13.03421,0.27852 -16.38504,-0.33164 -16.40083,-0.32504 -2.4192,-7.37478 6.9909,-3.52508 10.48781,-5.29113 12.53572,-5.2489 0.80809,0.0161 1.39354,0.31396 1.87673,0.8943 10.01725,-0.18576 15.49772,-5.03026 17.4181,-7.53607 1.99878,-2.60838 1.60496,-3.92103 -0.43988,-7.47745 -1.41898,-2.46763 -2.43865,-5.4077 -8.5917,-11.77331 -3.34709,-3.46257 -7.22119,-8.29323 -9.35415,-14.01658 -12.83725,-12.69885 -15.82719,-28.08931 5.55671,-45.71511 -0.0349,-6.38364 -2.97614,-16.04785 -8.95826,-25.58463 -7.53569,-12.01368 -19.08532,-23.55513 -29.01544,-29.27938 -4.74903,-2.73758 -11.60642,-1.91337 -19.52936,-1.27557 13.99285,3.88965 12.39346,4.5707 -4.2079,9.11956 1.80025,11.49495 -5.73686,10.69163 -33.75117,7.68273 -30.873231,-3.31603 -36.845122,-3.96216 -23.06285,-17.60867 0.900705,-2.30361 3.286485,-6.37705 6.861622,-12.47709 6.032914,-10.29396 8.648988,-14.78132 11.201538,-15.45342 1.98489,-0.52237 3.92464,1.2656 7.36019,4.45715 0.0757,0.0707 0.14383,0.12168 0.2199,0.19061 6.27983,-5.32277 10.37042,-7.98699 13.47408,-7.88798 3.10392,0.0991 5.21127,2.97077 7.55083,8.75301 18.48408,-4.34558 21.96253,-5.14739 13.51806,3.04963 1.35231,-0.30745 2.95901,-0.52437 5.04359,-0.63045 8.24103,-0.42145 16.89342,0.70258 24.98347,5.36618 11.00251,6.34243 21.39678,16.09433 29.80725,27.22673 -0.28707,-4.37152 0.0291,-9.09994 1.31955,-14.16319 4.65916,-18.28435 14.3668,-30.89932 17.30079,-39.33728 1.4667,-4.21913 1.67122,-6.73344 0.45451,-10.05791 -0.99449,-2.71689 -1.96694,-7.73967 -6.58312,-12.87295 2.2097,15.43094 1.15494,14.53322 -9.88198,0.82106 -9.82296,6.23549 -12.09725,-0.99705 -20.51171,-27.88652 -6.95515,-22.22545 -9.68196,-31.02481 -3.02028,-30.99479 z m 17.638,6.52443 c -3.61188,0.016 -1.21588,1.74701 6.45118,7.28686 11.15198,8.0583 11.16304,8.05509 13.4301,1.61279 2.26698,-6.44234 2.24661,-6.43348 -11.17219,-8.04927 -4.19351,-0.50487 -7.06755,-0.85038 -8.70909,-0.85038 z m 19.16281,21.4647 c -0.92881,0.0442 -1.73523,1.15426 -3.09361,2.99098 -3.34352,4.5209 -3.33936,4.50275 6.71505,8.97295 6.28416,2.7938 8.64267,3.84021 7.88803,2.03798 -0.45276,-1.08136 -2.02854,-3.16725 -4.54517,-6.53911 -3.98459,-5.33869 -5.60684,-7.52646 -6.9643,-7.4628 z m -11.6267,12.1252 c -0.79179,-0.009 -1.88646,0.57524 -3.53348,1.45151 -4.93119,2.6239 -4.92445,2.63292 1.61285,10.76169 6.53756,8.12879 6.53265,8.12826 4.92628,-2.62445 -0.65246,-4.36837 -1.03738,-6.97833 -1.59814,-8.34249 -0.35832,-0.87224 -0.79163,-1.24625 -1.40751,-1.24625 z m 124.34573,20.24779 c -1.5545,0.13947 -2.12906,1.82947 -3.21092,5.01431 -2.30763,6.79442 -2.3191,6.81032 12.12519,7.38947 14.44404,0.57929 14.45269,0.57056 2.31653,-6.80302 -6.06825,-3.68686 -9.10283,-5.52827 -10.90823,-5.60076 -0.1129,-0.005 -0.21898,-0.009 -0.32257,0 z m -11.12821,16.90491 c -1.61843,0.0446 -4.36436,0.78904 -8.9876,2.03798 -4.26725,1.15262 -6.92946,1.84889 -8.00534,2.4485 -0.4018,0.22384 -0.5847,0.43848 -0.54247,0.64511 0.66485,0.38097 1.28863,0.72846 1.87674,1.04099 1.39354,0.46123 3.56075,1.01443 6.50978,1.75939 11.20869,2.83161 11.20595,2.84147 11.37746,-3.0643 0.10167,-3.50623 0.13717,-4.93129 -2.22857,-4.86767 z m 2.62438,17.68198 c -0.35283,-0.0154 -0.75355,0.11709 -1.24622,0.39588 -1.3484,0.76334 -3.35574,2.64929 -6.72968,5.83535 -8.30555,7.84222 -8.31669,7.85483 2.3605,5.38082 10.67728,-2.47399 10.68484,-2.47581 8.31319,-7.84399 -1.05608,-2.39058 -1.64012,-3.72207 -2.69779,-3.76806 z m -221.71385,3.8267 c -1.82228,-0.10998 -3.41161,2.62311 -7.682768,9.9113 -6.834021,11.66085 -6.837928,11.67502 4.999688,4.66242 11.8372,-7.0126 11.83579,-7.0225 6.83228,-11.6707 -1.87607,-1.74316 -3.05603,-2.83582 -4.1492,-2.90302 z M 137.193,749.844 c -1.17223,-0.016 -3.73376,0.57672 -7.82933,1.53947 -10.9217,2.56769 -10.92021,2.5641 -8.10785,7.43347 2.81202,4.86951 2.8136,4.87107 10.92294,-2.5658 5.06828,-4.64834 6.96779,-6.38088 5.01424,-6.40715 z m -9.25148,19.64664 c -2.15524,-0.0439 -2.04965,1.32684 -1.78869,4.6331 0.43922,5.56834 0.45069,5.55296 10.51242,2.80037 10.06181,-2.75245 10.0466,-2.74084 -0.45451,-5.55677 -4.26601,-1.1439 -6.79486,-1.84666 -8.26922,-1.8767 z m 248.48611,45.07001 c -1.28139,-0.002 -3.59326,0.95854 -7.97591,2.77105 -9.35016,3.86666 -9.35681,3.86791 0.42516,4.98498 9.78206,1.11704 9.78622,1.12791 9.35415,-3.85604 -0.22945,-2.6478 -0.351,-3.9 -1.8034,-3.9 z M 227.2011,891.24122 c 1.03763,3.80106 2.0524,7.59502 3.51877,11.53877 2.61424,7.0308 0.30453,8.93505 -3.1962,10.76162 4.24955,-1.41874 6.79403,-3.81231 7.9173,-5.27816 1.7048,-2.22511 1.37774,-3.34417 -0.36655,-6.37786 -1.21023,-2.10488 -2.0825,-4.62817 -7.33085,-10.05791 -0.18066,-0.18682 -0.35849,-0.39058 -0.54247,-0.58646 z m 60.58204,16.67035 c -1.6654,-0.0102 -4.66481,1.63137 -10.6737,4.91162 -12.01777,6.56041 -12.01794,6.56049 1.30492,6.6418 13.32285,0.0818 13.31338,0.0739 12.00788,-6.56846 -0.65229,-3.32133 -0.97379,-4.96714 -2.6391,-4.98496 z m -92.38324,8.40108 c -0.064,0 -0.13452,0.0291 -0.20526,0.0291 -0.99166,0.0814 -2.6342,0.9155 -5.73271,2.47786 -6.61063,3.33258 -6.60315,3.33216 1.14363,3.48947 7.74711,0.15664 7.73406,0.14706 6.59775,-3.34286 -0.566,-1.73826 -0.84368,-2.61237 -1.80341,-2.63913 l 0,-0.0147 z m 21.3474,1.37826 c -0.27261,0.0514 -0.54812,0.0971 -0.82106,0.14661 -0.87751,0.27314 -2.17902,0.92677 -4.23724,1.96466 -5.63868,2.8445 -5.64026,2.84196 0.96771,2.97634 6.60781,0.13365 6.61404,0.13258 5.64475,-2.84437 -0.48452,-1.48844 -0.72803,-2.22543 -1.55416,-2.24323 z"
       id="path3289"
       inkscape:connector-curvature="0" />
  </g>
</svg>
